<svg width="72" height="30" viewBox="0 0 72 30" fill="none" xmlns="http://www.w3.org/2000/svg">
<path d="M23.6855 14.8438H20.1582V19H17.7588V9.04688H20.1582V12.998H23.6855V9.04688H26.0781V19H23.6855V14.8438Z" fill="white"/>
<path fill-rule="evenodd" clip-rule="evenodd" d="M27.2061 15.2334V15.377C27.2061 15.9147 27.2835 16.4137 27.4385 16.874C27.5934 17.3298 27.8213 17.7285 28.1221 18.0703C28.4229 18.4076 28.7965 18.6696 29.2432 18.8564C29.6898 19.0433 30.2025 19.1367 30.7812 19.1367C31.36 19.1367 31.8704 19.0433 32.3125 18.8564C32.7546 18.6696 33.126 18.4076 33.4268 18.0703C33.7275 17.7285 33.9554 17.3298 34.1104 16.874C34.2653 16.4137 34.3428 15.9147 34.3428 15.377V15.2334C34.3428 14.6911 34.2653 14.1921 34.1104 13.7363C33.9554 13.276 33.7275 12.8773 33.4268 12.54C33.126 12.2028 32.7523 11.9408 32.3057 11.7539C31.8636 11.5625 31.3509 11.4668 30.7676 11.4668C30.1888 11.4668 29.6784 11.5625 29.2363 11.7539C28.7943 11.9408 28.4229 12.2028 28.1221 12.54C27.8213 12.8773 27.5934 13.276 27.4385 13.7363C27.2835 14.1921 27.2061 14.6911 27.2061 15.2334ZM29.5098 15.377V15.2334C29.5098 14.9645 29.5303 14.7116 29.5713 14.4746C29.6123 14.2331 29.6807 14.0212 29.7764 13.8389C29.8721 13.652 29.9997 13.5062 30.1592 13.4014C30.3232 13.2965 30.526 13.2441 30.7676 13.2441C31.0137 13.2441 31.2188 13.2965 31.3828 13.4014C31.5469 13.5062 31.6768 13.652 31.7725 13.8389C31.8682 14.0212 31.9365 14.2331 31.9775 14.4746C32.0186 14.7116 32.0391 14.9645 32.0391 15.2334V15.377C32.0391 15.6549 32.0186 15.9147 31.9775 16.1562C31.9365 16.3978 31.8682 16.6097 31.7725 16.792C31.6768 16.9697 31.5469 17.1087 31.3828 17.209C31.2233 17.3092 31.0228 17.3594 30.7812 17.3594C30.5352 17.3594 30.3301 17.3092 30.166 17.209C30.002 17.1087 29.8721 16.9697 29.7764 16.792C29.6807 16.6097 29.6123 16.3978 29.5713 16.1562C29.5303 15.9147 29.5098 15.6549 29.5098 15.377Z" fill="white"/>
<path d="M37.6924 13.8494V19H35.3887V11.6035H37.5488L37.6283 12.4705C37.8678 12.1541 38.1603 11.9084 38.5059 11.7334C38.8613 11.5557 39.2715 11.4668 39.7363 11.4668C40.0599 11.4668 40.3538 11.5169 40.6182 11.6172C40.8825 11.7129 41.1104 11.8656 41.3018 12.0752C41.4311 12.2137 41.5396 12.3814 41.6273 12.5782C41.6482 12.5468 41.6695 12.5158 41.6914 12.4854C41.9284 12.1618 42.2223 11.9111 42.5732 11.7334C42.9242 11.5557 43.332 11.4668 43.7969 11.4668C44.1341 11.4668 44.444 11.5169 44.7266 11.6172C45.0091 11.7174 45.2529 11.8792 45.458 12.1025C45.6631 12.3258 45.8226 12.6221 45.9365 12.9912C46.0505 13.3558 46.1074 13.807 46.1074 14.3447V19H43.7969V14.3447C43.7969 14.0394 43.7604 13.8092 43.6875 13.6543C43.6191 13.4948 43.5189 13.3877 43.3867 13.333C43.2546 13.2738 43.0973 13.2441 42.915 13.2441C42.6963 13.2441 42.5072 13.2897 42.3477 13.3809C42.1882 13.472 42.0537 13.5996 41.9443 13.7637C41.9262 13.7912 41.9089 13.8197 41.8925 13.849C41.8951 13.9191 41.8965 13.9909 41.8965 14.0645V19H39.5928V14.3584C39.5928 14.0439 39.5563 13.807 39.4834 13.6475C39.415 13.488 39.3148 13.3809 39.1826 13.3262C39.0505 13.2715 38.8887 13.2441 38.6973 13.2441C38.4967 13.2441 38.3167 13.2897 38.1572 13.3809C37.9977 13.472 37.861 13.5996 37.7471 13.7637C37.7281 13.7914 37.7099 13.8199 37.6924 13.8494Z" fill="white"/>
<path fill-rule="evenodd" clip-rule="evenodd" d="M49.3955 18.8564C49.8695 19.0433 50.4072 19.1367 51.0088 19.1367C51.4827 19.1367 51.9111 19.0752 52.2939 18.9521C52.6768 18.8245 53.0049 18.6605 53.2783 18.46C53.5563 18.2594 53.7705 18.0521 53.9209 17.8379L52.875 16.5938C52.6562 16.8672 52.3942 17.0632 52.0889 17.1816C51.7835 17.3001 51.4736 17.3594 51.1592 17.3594C50.8994 17.3594 50.667 17.3161 50.4619 17.2295C50.2614 17.1429 50.0882 17.0221 49.9424 16.8672C49.8011 16.7077 49.6917 16.5163 49.6143 16.293C49.5864 16.2078 49.5639 16.1189 49.5467 16.0264H54.1191V15.0898C54.1191 14.5339 54.0417 14.0326 53.8867 13.5859C53.7363 13.1393 53.5153 12.7588 53.2236 12.4443C52.9365 12.1299 52.5856 11.8883 52.1709 11.7197C51.7562 11.5511 51.2868 11.4668 50.7627 11.4668C50.1702 11.4668 49.6507 11.5648 49.2041 11.7607C48.7575 11.9521 48.3861 12.221 48.0898 12.5674C47.7936 12.9137 47.5703 13.3193 47.4199 13.7842C47.2695 14.2445 47.1943 14.7458 47.1943 15.2881V15.5479C47.1943 16.0309 47.2786 16.4889 47.4473 16.9219C47.6204 17.3548 47.8688 17.7376 48.1924 18.0703C48.5205 18.403 48.9216 18.665 49.3955 18.8564ZM49.5491 14.584C49.5524 14.5588 49.5559 14.5337 49.5596 14.5088C49.596 14.2627 49.6576 14.0462 49.7441 13.8594C49.8353 13.668 49.9606 13.5176 50.1201 13.4082C50.2842 13.2988 50.4915 13.2441 50.7422 13.2441C50.9837 13.2441 51.1888 13.2897 51.3574 13.3809C51.526 13.472 51.6536 13.6042 51.7402 13.7773C51.8314 13.9505 51.8747 14.1602 51.8701 14.4062V14.584H49.5491Z" fill="white"/>
<path fill-rule="evenodd" clip-rule="evenodd" d="M57 0H15C6.71573 0 0 6.71573 0 15C0 23.2843 6.71573 30 15 30H57C65.2843 30 72 23.2843 72 15C72 6.71573 65.2843 0 57 0ZM1 15C1 7.26801 7.26801 1 15 1H57C64.732 1 71 7.26801 71 15C71 22.732 64.732 29 57 29H15C7.26801 29 1 22.732 1 15Z" fill="white"/>
</svg>
