<svg width="72" height="30" viewBox="0 0 72 30" fill="none" xmlns="http://www.w3.org/2000/svg">
<path d="M25.335 19V17.1543H21.1582V9.04688H18.7588V19H25.335Z" fill="white"/>
<path fill-rule="evenodd" clip-rule="evenodd" d="M25.9502 15.2334V15.377C25.9502 15.9147 26.0277 16.4137 26.1826 16.874C26.3376 17.3298 26.5654 17.7285 26.8662 18.0703C27.167 18.4076 27.5407 18.6696 27.9873 18.8564C28.4339 19.0433 28.9466 19.1367 29.5254 19.1367C30.1042 19.1367 30.6146 19.0433 31.0566 18.8564C31.4987 18.6696 31.8701 18.4076 32.1709 18.0703C32.4717 17.7285 32.6995 17.3298 32.8545 16.874C33.0094 16.4137 33.0869 15.9147 33.0869 15.377V15.2334C33.0869 14.6911 33.0094 14.1921 32.8545 13.7363C32.6995 13.276 32.4717 12.8773 32.1709 12.54C31.8701 12.2028 31.4964 11.9408 31.0498 11.7539C30.6077 11.5625 30.0951 11.4668 29.5117 11.4668C28.9329 11.4668 28.4225 11.5625 27.9805 11.7539C27.5384 11.9408 27.167 12.2028 26.8662 12.54C26.5654 12.8773 26.3376 13.276 26.1826 13.7363C26.0277 14.1921 25.9502 14.6911 25.9502 15.2334ZM28.2539 15.377V15.2334C28.2539 14.9645 28.2744 14.7116 28.3154 14.4746C28.3564 14.2331 28.4248 14.0212 28.5205 13.8389C28.6162 13.652 28.7438 13.5062 28.9033 13.4014C29.0674 13.2965 29.2702 13.2441 29.5117 13.2441C29.7578 13.2441 29.9629 13.2965 30.127 13.4014C30.291 13.5062 30.4209 13.652 30.5166 13.8389C30.6123 14.0212 30.6807 14.2331 30.7217 14.4746C30.7627 14.7116 30.7832 14.9645 30.7832 15.2334V15.377C30.7832 15.6549 30.7627 15.9147 30.7217 16.1562C30.6807 16.3978 30.6123 16.6097 30.5166 16.792C30.4209 16.9697 30.291 17.1087 30.127 17.209C29.9674 17.3092 29.7669 17.3594 29.5254 17.3594C29.2793 17.3594 29.0742 17.3092 28.9102 17.209C28.7461 17.1087 28.6162 16.9697 28.5205 16.792C28.4248 16.6097 28.3564 16.3978 28.3154 16.1562C28.2744 15.9147 28.2539 15.6549 28.2539 15.377Z" fill="white"/>
<path fill-rule="evenodd" clip-rule="evenodd" d="M40.8525 11.6035H38.7607L38.6811 12.2405C38.5222 12.0469 38.3346 11.887 38.1182 11.7607C37.7946 11.5648 37.3799 11.4668 36.874 11.4668C36.4046 11.4668 35.9831 11.5579 35.6094 11.7402C35.2357 11.9225 34.9167 12.1823 34.6523 12.5195C34.3926 12.8522 34.1921 13.251 34.0508 13.7158C33.9141 14.1761 33.8457 14.6865 33.8457 15.2471V15.3906C33.8457 15.9284 33.9141 16.4251 34.0508 16.8809C34.1921 17.3366 34.3926 17.7331 34.6523 18.0703C34.9167 18.4076 35.2334 18.6696 35.6025 18.8564C35.9762 19.0433 36.3955 19.1367 36.8604 19.1367C37.307 19.1367 37.6898 19.041 38.0088 18.8496C38.2071 18.7295 38.3848 18.5821 38.542 18.4072V18.6992C38.542 19.0182 38.4827 19.2894 38.3643 19.5127C38.2458 19.7406 38.0726 19.9137 37.8447 20.0322C37.6214 20.1507 37.3434 20.21 37.0107 20.21C36.6279 20.21 36.2952 20.1348 36.0127 19.9844C35.7301 19.8385 35.4954 19.6608 35.3086 19.4512L34.3447 20.8047C34.5498 21.0462 34.8027 21.249 35.1035 21.4131C35.4043 21.5771 35.7279 21.7002 36.0742 21.7822C36.4206 21.8688 36.7601 21.9121 37.0928 21.9121C37.8447 21.9121 38.501 21.7868 39.0615 21.5361C39.6266 21.29 40.0664 20.9277 40.3809 20.4492C40.6953 19.9753 40.8525 19.3965 40.8525 18.7129V11.6035ZM38.542 13.7563V16.86C38.4636 16.9738 38.3679 17.0696 38.2549 17.1475C38.0498 17.2887 37.7809 17.3594 37.4482 17.3594C37.2295 17.3594 37.0381 17.3092 36.874 17.209C36.7145 17.1087 36.5801 16.9697 36.4707 16.792C36.3613 16.6097 36.2793 16.4001 36.2246 16.1631C36.1745 15.9261 36.1494 15.6686 36.1494 15.3906V15.2471C36.1494 14.96 36.1768 14.6956 36.2314 14.4541C36.2907 14.208 36.375 13.9961 36.4844 13.8184C36.5938 13.6361 36.7305 13.4948 36.8945 13.3945C37.0586 13.2943 37.2477 13.2441 37.4619 13.2441C37.708 13.2441 37.9176 13.2852 38.0908 13.3672C38.2686 13.4447 38.4098 13.5609 38.5146 13.7158C38.524 13.729 38.5331 13.7425 38.542 13.7563Z" fill="white"/>
<path d="M44.6123 19V11.6035H42.3018V19H44.6123Z" fill="white"/>
<path d="M42.5205 8.88965C42.2835 9.09928 42.165 9.36816 42.165 9.69629C42.165 10.0244 42.2835 10.2933 42.5205 10.5029C42.7575 10.7126 43.0651 10.8174 43.4434 10.8174C43.8216 10.8174 44.1292 10.7126 44.3662 10.5029C44.6032 10.2933 44.7217 10.0244 44.7217 9.69629C44.7217 9.36816 44.6032 9.09928 44.3662 8.88965C44.1292 8.68001 43.8216 8.5752 43.4434 8.5752C43.0651 8.5752 42.7575 8.68001 42.5205 8.88965Z" fill="white"/>
<path d="M48.2969 13.7637V19H45.9932V11.6035H48.1533L48.2316 12.4649C48.2441 12.4488 48.2567 12.4328 48.2695 12.417C48.5202 12.1071 48.8187 11.8724 49.165 11.7129C49.5159 11.5488 49.9056 11.4668 50.334 11.4668C50.6758 11.4668 50.988 11.5169 51.2705 11.6172C51.5576 11.7174 51.8037 11.8792 52.0088 12.1025C52.2184 12.3258 52.3779 12.6221 52.4873 12.9912C52.6012 13.3558 52.6582 13.807 52.6582 14.3447V19H50.3408V14.3379C50.3408 14.0417 50.2998 13.8161 50.2178 13.6611C50.1357 13.5016 50.0173 13.3923 49.8623 13.333C49.7074 13.2738 49.5182 13.2441 49.2949 13.2441C49.0579 13.2441 48.8574 13.2897 48.6934 13.3809C48.5293 13.472 48.3971 13.5996 48.2969 13.7637Z" fill="white"/>
<path fill-rule="evenodd" clip-rule="evenodd" d="M57 0H15C6.71573 0 0 6.71573 0 15C0 23.2843 6.71573 30 15 30H57C65.2843 30 72 23.2843 72 15C72 6.71573 65.2843 0 57 0ZM1 15C1 7.26801 7.26801 1 15 1H57C64.732 1 71 7.26801 71 15C71 22.732 64.732 29 57 29H15C7.26801 29 1 22.732 1 15Z" fill="white"/>
</svg>
