<svg width="40" height="40" viewBox="0 0 40 40" fill="none" xmlns="http://www.w3.org/2000/svg">
<path d="M0 0H40V40H0V0Z" fill="#303030"/>
<path d="M9 13C9 12.4477 9.44772 12 10 12H29C29.5523 12 30 12.4477 30 13C30 13.5523 29.5523 14 29 14H10C9.44772 14 9 13.5523 9 13Z" fill="white"/>
<path d="M9 20C9 19.4477 9.44772 19 10 19H29C29.5523 19 30 19.4477 30 20C30 20.5523 29.5523 21 29 21H10C9.44772 21 9 20.5523 9 20Z" fill="white"/>
<path d="M9 27C9 26.4477 9.44772 26 10 26H29C29.5523 26 30 26.4477 30 27C30 27.5523 29.5523 28 29 28H10C9.44772 28 9 27.5523 9 27Z" fill="white"/>
</svg>
