<svg width="2000" height="2000" viewBox="0 0 2000 2000" fill="none" xmlns="http://www.w3.org/2000/svg">
<g clip-path="url(#clip0_100_5)">
<rect width="2000" height="2000" rx="999" fill="url(#paint0_linear_100_5)"/>
<path fill-rule="evenodd" clip-rule="evenodd" d="M1487.66 1072.84C1499.06 1079.19 1509.56 1086.74 1517.48 1094.99C1530.76 1108.83 1534.44 1121.7 1528.91 1134.27C1520.39 1153.65 1510.76 1169.68 1500.32 1183.09C1494.98 1189.96 1489.4 1196.17 1483.62 1201.81C1482.97 1201.23 1482.31 1200.67 1481.66 1200.12C1475.43 1194.91 1467.56 1189.57 1459.79 1184.72C1452.57 1180.21 1445.06 1175.88 1438.42 1172.19C1457.63 1138.84 1473.89 1105.55 1487.66 1072.84ZM1112.73 1500.97C1214.38 1438.35 1292.93 1367.55 1353.73 1294.11C1400.77 1282.44 1449.85 1269.05 1491.14 1235.27C1502.8 1225.73 1513.81 1214.61 1524 1201.52L1524.11 1201.37L1524.24 1201.21C1515.87 1270.8 1492.72 1315.83 1461.96 1347.4C1422.39 1388.03 1368.37 1408.5 1308.49 1428.05C1216.3 1458.13 1166.92 1505.41 1126.51 1544.1L1126.35 1544.25C1115.7 1554.45 1105.93 1563.78 1096.31 1572.04C1099.45 1559.72 1102.04 1547.73 1104.48 1536.44L1104.48 1536.44L1104.58 1535.96C1107.34 1523.18 1109.87 1511.5 1112.73 1500.97ZM651.008 1293.8C604.355 1282.2 555.785 1268.75 514.861 1235.27C503.196 1225.73 492.189 1214.61 482.002 1201.52C481.922 1201.42 481.841 1201.31 481.761 1201.21C490.128 1270.8 513.279 1315.83 544.04 1347.4C583.614 1388.03 637.63 1408.5 697.512 1428.05C789.701 1458.13 839.08 1505.41 879.493 1544.11L879.647 1544.25C890.299 1554.45 900.073 1563.78 909.695 1572.04C906.548 1559.72 903.959 1547.72 901.523 1536.44L901.421 1535.96C898.725 1523.47 896.245 1512.05 893.468 1501.71C791.094 1438.82 712.087 1367.64 651.008 1293.8ZM566.708 1172.42C547.53 1139.14 531.297 1105.93 517.533 1073.29C506.444 1079.55 496.248 1086.93 488.525 1094.99C475.242 1108.83 471.56 1121.7 477.089 1134.27C485.614 1153.65 495.237 1169.68 505.677 1183.09C511.004 1189.94 516.565 1196.13 522.334 1201.76C523.107 1201.07 523.89 1200.39 524.677 1199.74C531.066 1194.39 539.141 1188.93 547.059 1183.99C553.717 1179.83 560.567 1175.86 566.708 1172.42Z" fill="white"/>
<path fill-rule="evenodd" clip-rule="evenodd" d="M1034.69 532.796L1002.85 490.896L971.003 532.796C963.931 542.1 943.222 558.758 907.76 578.898C873.926 598.113 831.098 618.047 784.935 635.306C738.766 652.566 690.129 666.827 644.693 675.104C598.736 683.477 558.62 685.246 528.345 679.591L472.732 669.202L481.481 725.097C482.301 730.337 482.853 739.887 483.611 753.009C486.719 806.835 493.297 920.762 536.136 1043.86L541.011 1056.86C540.945 1056.89 540.878 1056.91 540.812 1056.94C566.236 1126.15 603.457 1199.12 658.1 1269.8C661.336 1270.6 664.588 1271.4 667.854 1272.21L668.067 1272.26C686.764 1276.87 705.918 1281.59 724.893 1287.51C546.418 1088.49 530.355 860.115 524.264 759.97C524.181 758.601 524.1 757.257 524.02 755.936C523.033 739.625 522.271 727.03 521 718.911C533.683 721.28 547.36 722.535 561.8 722.81C694.706 725.334 892.208 644.729 973.405 584.249C986.495 574.499 996.562 565.271 1002.85 557C1009.14 565.271 1019.2 574.499 1032.29 584.249C1113.49 644.729 1310.99 725.334 1443.9 722.81C1458.34 722.535 1472.02 721.28 1484.7 718.911C1483.43 727.03 1482.66 739.625 1481.68 755.936C1481.6 757.257 1481.52 758.601 1481.43 759.97C1475.34 860.137 1459.27 1088.59 1280.69 1287.64C1299.8 1281.66 1319.1 1276.9 1337.93 1272.26L1338.15 1272.21C1341.29 1271.43 1344.41 1270.66 1347.53 1269.89C1402.35 1199.01 1439.64 1125.81 1465.08 1056.42C1511.95 928.559 1518.87 808.66 1522.09 753.009L1522.09 752.998C1522.85 739.882 1523.4 730.335 1524.22 725.097L1532.97 669.202L1477.35 679.591C1447.08 685.246 1406.96 683.477 1361 675.104C1315.57 666.827 1266.93 652.566 1220.76 635.306C1174.6 618.047 1131.77 598.113 1097.94 578.898C1062.48 558.758 1041.77 542.1 1034.69 532.796ZM1326.72 1295.65C1272.77 1359.68 1203.68 1421.16 1115.14 1475.44C1115.08 1473.94 1114.68 1472.44 1113.96 1471.08C1112.57 1468.49 1110.11 1466.64 1107.24 1466.03C1101.71 1464.85 1096.12 1461.87 1087.95 1457.39L1087.84 1457.33C1084.51 1455.5 1080.94 1453.55 1077.07 1451.62C1146.05 1411.27 1203.08 1366.55 1250.27 1319.64C1258.23 1316.54 1266.27 1313.58 1274.42 1310.76C1291.53 1304.83 1309.01 1300.11 1326.72 1295.65ZM1055.33 1463.97C1064.03 1467.1 1071.37 1471.11 1078.33 1474.93L1078.99 1475.29L1078.99 1475.29C1083.19 1477.59 1087.63 1480.03 1092.29 1482.04C1091.38 1484.81 1090.52 1487.65 1089.69 1490.53C1067.67 1503.16 1044.52 1515.36 1020.17 1527.05L1002.85 1535.38L985.525 1527.05C961.314 1515.42 938.28 1503.29 916.366 1490.74C915.522 1487.78 914.639 1484.88 913.71 1482.04C918.368 1480.03 922.808 1477.59 927.013 1475.29L927.668 1474.93C934.576 1471.14 941.863 1467.16 950.492 1464.04C967.265 1473.29 984.708 1482.28 1002.85 1491C1021.03 1482.26 1038.52 1473.24 1055.33 1463.97ZM755.234 1319.45C802.495 1366.46 859.632 1411.27 928.768 1451.7C924.956 1453.61 921.446 1455.53 918.163 1457.33L918.054 1457.39C909.883 1461.87 904.286 1464.85 898.763 1466.03C895.889 1466.64 893.432 1468.49 892.044 1471.08C891.286 1472.5 890.888 1474.06 890.86 1475.63C802.13 1421.27 732.916 1359.69 678.894 1295.56C696.741 1300.05 714.347 1304.78 731.584 1310.76C739.556 1313.52 747.437 1316.42 755.234 1319.45Z" fill="white"/>
<path d="M734.858 1301.31C827.21 1333.31 907.358 1383.31 985.858 1448.31C956.022 1447.98 937.796 1457.97 922.861 1466.16C915.021 1470.46 908.088 1474.26 900.858 1475.81C907.317 1492.18 911.541 1511.76 916.083 1532.8C921.387 1557.37 927.124 1583.95 937.358 1609.81C912.755 1596.72 892.195 1577.03 869.273 1555.09C829.153 1516.67 781.796 1471.33 692.858 1442.31C573.358 1403.31 463.358 1356.81 463.358 1140.31C472.336 1160.72 482.574 1177.83 493.839 1192.31C503.33 1204.5 513.549 1214.82 524.358 1223.66C565.431 1257.26 615.014 1269.48 665.461 1281.92C688.659 1287.64 712.039 1293.4 734.858 1301.31Z" fill="white"/>
<path d="M1271.14 1301.31C1178.79 1333.31 1098.64 1383.31 1020.14 1448.31C1049.98 1447.98 1068.2 1457.97 1083.14 1466.16C1090.98 1470.46 1097.91 1474.26 1105.14 1475.81C1098.68 1492.18 1094.46 1511.76 1089.92 1532.8C1084.61 1557.37 1078.88 1583.95 1068.64 1609.81C1093.24 1596.72 1113.8 1577.03 1136.73 1555.09C1176.85 1516.67 1224.2 1471.33 1313.14 1442.31C1432.64 1403.31 1542.64 1356.81 1542.64 1140.31C1533.66 1160.72 1523.43 1177.83 1512.16 1192.31C1502.67 1204.5 1492.45 1214.82 1481.64 1223.66C1440.57 1257.26 1390.99 1269.48 1340.54 1281.92C1317.34 1287.64 1293.96 1293.4 1271.14 1301.31Z" fill="white"/>
<path d="M1000.25 665.397C960.268 715.877 723.094 815.544 603.412 794.09C612.881 852.142 643.916 1215.81 1000.25 1397.45M999.878 665.397C1039.86 715.877 1283.35 815.544 1403.03 794.09C1393.56 852.142 1356.21 1215.81 999.878 1397.45" stroke="#CCF9FF" stroke-width="10" stroke-linecap="square" stroke-linejoin="round"/>
<path fill-rule="evenodd" clip-rule="evenodd" d="M1001 773.5V666C795.344 805.864 651.92 797.98 612.8 795.83C609.405 795.643 606.796 795.5 605 795.5C610.6 886.3 642 977.333 657 1011.5H856L991.798 779.094C993.859 775.522 997.397 773.658 1001 773.5ZM1001 922.932C997.928 923.25 994.983 924.955 993.257 928.047L953.195 999.834C950.942 1003.87 951.792 1008.47 954.497 1011.5H1001V1014.84H1042.12C1045.2 1014.84 1047.82 1013.52 1049.62 1011.5H1001V1010.5H967.238C960.367 1010.5 956.031 1003.11 959.381 997.112L995.142 933.072C996.484 930.669 998.651 929.205 1001 928.68V922.932ZM1002.06 1098.99C1001.7 1098.99 1001.35 1098.99 1001 1099V1399C1090 1352 1284.3 1208.7 1349.5 1011.5H1148L1210.96 1120.5C1219 1132.5 1210.96 1151 1189.5 1149.62H1042C1042 1120.62 1034.76 1098.99 1002.06 1098.99Z" fill="white"/>
<path fill-rule="evenodd" clip-rule="evenodd" d="M993.839 806C997.688 799.333 1007.31 799.333 1011.16 806L1191.73 1118.75C1195.58 1125.42 1190.76 1133.75 1183.07 1133.75H1056C1055.86 1104.59 1032.19 1081 1003 1081C973.812 1081 950.135 1104.59 950 1133.75H821.933C814.235 1133.75 809.424 1125.42 813.273 1118.75L993.839 806ZM1010.86 933.072C1007.42 926.922 998.576 926.922 995.142 933.072L959.38 997.112C956.03 1003.11 960.367 1010.5 967.238 1010.5H1038.76C1045.63 1010.5 1049.97 1003.11 1046.62 997.112L1010.86 933.072Z" fill="white"/>
<path d="M1000.25 665.397C960.268 715.877 723.094 815.544 603.412 794.09C612.881 852.142 643.916 1215.81 1000.25 1397.45M999.878 665.397C1039.86 715.877 1283.35 815.544 1403.03 794.09C1393.56 852.142 1356.21 1215.81 999.878 1397.45" stroke="white" stroke-width="10" stroke-linecap="square"/>
<path fill-rule="evenodd" clip-rule="evenodd" d="M476.381 440.579C503.066 444.881 546.047 432.286 568.192 355.378C520.152 358.116 458.71 376.192 463.554 428.977C451.737 438.568 440.382 448.335 429.475 458.259C432.924 428.211 412.753 392.885 391.561 367.241C349.216 437.423 371.202 477.77 393.043 493.661C383.141 503.944 373.67 514.36 364.616 524.89C367.313 495.143 347.433 460.496 326.562 435.241C281.184 510.449 309.682 551.396 332.71 564.701C323.866 576.557 315.503 588.521 307.6 600.565C306.381 571.045 283.103 539.379 259.879 516.901C222.96 597.023 256.267 634.537 280.658 645.019C271.583 661.28 263.282 677.625 255.707 693.993C248.422 664.871 217.79 638.775 189.431 621.965C172.845 704.73 209.755 734.64 235.887 741.046C231.47 752.64 227.395 764.214 223.644 775.746C216.249 746.723 185.71 720.727 157.431 703.965C139.57 793.092 183.746 820.926 209.692 824.12C205.697 839.944 202.284 855.625 199.408 871.102C187.801 842.674 151.809 821.897 119.986 810.309C118.922 899.547 165.709 919.671 192.104 918.807C190.533 931.832 189.33 944.656 188.467 957.239C175.644 929.601 139.384 910.237 107.501 899.763C109.348 992.774 160.779 1009.07 186.264 1005.59C186.429 1005.26 186.592 1004.94 186.751 1004.61C186.691 1022.09 187.279 1038.94 188.418 1055.02C168.781 1032.8 130.465 1023.1 98.0928 1020.52C120.184 1104.32 168.408 1113.28 194.264 1106.52C194.967 1110.94 195.714 1115.26 196.5 1119.5C196.892 1121.61 197.32 1123.98 197.792 1126.6C198.993 1133.26 200.482 1141.52 202.404 1151.15C182.073 1127.81 140.739 1120.27 106.561 1120.11C136.429 1206.61 189.124 1207.72 212.898 1197.12C216.34 1210.42 220.445 1224.87 225.37 1240.23C202.791 1219.24 161.145 1215.81 127.268 1218.95C165.767 1302.91 218.941 1298.03 241.217 1284.89C246.384 1298.14 252.149 1311.82 258.586 1325.81C232.091 1313.28 193.623 1318.6 163.093 1328.17C213.442 1395.64 260.245 1388.39 282.545 1373.32C287.704 1382.68 293.177 1392.13 298.983 1401.62C272.477 1388.88 233.808 1394.2 203.146 1403.81C257.765 1477.01 308.211 1462.27 327.73 1444.99C336.676 1457.47 346.241 1469.96 356.471 1482.39C327.489 1477.33 291.717 1493 264.825 1510.62C331.125 1561.4 374.023 1542.39 391.638 1521.98C398.296 1528.94 405.185 1535.85 412.312 1542.7C383.374 1537.78 347.727 1553.41 320.91 1570.97C392.335 1625.68 436.6 1599.39 451.354 1577.62C461.014 1585.65 471.045 1593.57 481.462 1601.35C451.458 1599.53 417.334 1621 392.782 1643.07C471.448 1686.17 511.205 1653.78 522.618 1630.04C533.791 1637.3 545.351 1644.41 557.313 1651.34C529.3 1658.52 503.009 1686.01 485.28 1711.98C562.621 1732.7 595.58 1702.34 605.648 1677.26C641.068 1694.8 679.593 1710.85 721.5 1725C724.7 1720.6 727.5 1710.83 728.5 1706.5C695.724 1696.85 655.426 1681.75 611.874 1659.98C628.389 1640.01 641.548 1588.46 565.136 1537.01C556.481 1570.16 553.14 1612.16 570.604 1637.8C558.899 1631.06 547.064 1623.84 535.174 1616.13C553.416 1596.2 566.868 1552.43 511.848 1492.03C496.606 1520.28 484.051 1557.19 491.485 1585.62C482.993 1579.24 474.519 1572.6 466.09 1565.69C487.017 1548.59 506.495 1507.45 461.536 1439.76C441.612 1466.12 423.11 1501.98 427.515 1531.73C419.818 1524.46 412.196 1516.94 404.672 1509.17C427.152 1495.04 454.234 1452.85 405.451 1379.4C385.269 1406.11 366.545 1442.55 371.613 1472.53C362.363 1461.52 353.33 1450.07 344.561 1438.17C369.298 1427.29 398.92 1392.98 374.213 1315.9C347.42 1336.17 319.365 1366.27 316.237 1396.61C309.808 1386.38 303.578 1375.86 297.57 1365.04C323.056 1357.84 361.24 1324.74 334.16 1240.26C306.816 1260.94 278.156 1291.88 276.022 1322.84C269.866 1309.67 264.034 1296.11 258.561 1282.14C285.01 1276.58 320.943 1249.17 312.96 1168.85C283.982 1182.36 252.017 1204.36 240.885 1231.46C237.311 1219.82 233.979 1207.94 230.905 1195.8C257.779 1192.91 296.376 1169.21 296.247 1088.32C266.735 1098.72 233.583 1116.93 219.325 1141.96C217.185 1129.97 215.289 1117.75 213.649 1105.29C240.588 1105.79 283.505 1086.48 289.624 1002.97C258.267 1011.45 222.371 1028.03 207.155 1053.49C206.007 1040.26 205.323 1025.88 205.222 1010.51C231.888 1014.77 273.835 1002.31 297.773 927.848C266.055 928.68 228.307 936.001 207.198 956.06C208.019 945.421 209.111 934.483 210.499 923.286C236.633 930.114 281.739 921.563 309.269 844.424C278.296 844.253 241.383 850.079 219.423 868.384C221.784 856.644 224.475 844.713 227.524 832.626C252.395 843.208 296.95 841.293 337.151 772.47C306.04 766.443 267.66 765.435 242.714 780.405C246.257 769.683 250.092 758.887 254.236 748.039C277.641 761.115 325.915 764.49 369.151 690.47C338.368 684.506 300.468 683.457 275.507 697.937C281.92 684.252 288.856 670.544 296.348 656.86C317.376 673.808 362.116 684.549 418.815 625.213C389.304 611.843 351.184 601.815 323.264 611.651C330.616 600.259 338.385 588.92 346.591 577.662C365.235 597.154 408.8 613.845 472.51 560.505C444.632 543.927 407.809 529.722 378.957 536.455C387.999 525.756 397.476 515.164 407.405 504.705C423.022 525.837 468.42 550.349 537.51 492.505C509.77 476.009 473.172 461.862 444.384 468.357C454.636 458.95 465.296 449.684 476.381 440.579Z" fill="white"/>
<path fill-rule="evenodd" clip-rule="evenodd" d="M1524.12 440.579C1497.43 444.881 1454.45 432.286 1432.31 355.378C1480.35 358.116 1541.79 376.192 1536.95 428.977C1548.76 438.568 1560.12 448.335 1571.02 458.259C1567.58 428.211 1587.75 392.885 1608.94 367.241C1651.28 437.423 1629.3 477.77 1607.46 493.661C1617.36 503.944 1626.83 514.36 1635.88 524.89C1633.19 495.143 1653.07 460.496 1673.94 435.241C1719.32 510.449 1690.82 551.396 1667.79 564.701C1676.63 576.557 1685 588.521 1692.9 600.565C1694.12 571.045 1717.4 539.379 1740.62 516.901C1777.54 597.023 1744.23 634.537 1719.84 645.019C1728.92 661.28 1737.22 677.625 1744.79 693.993C1752.08 664.871 1782.71 638.775 1811.07 621.965C1827.65 704.73 1790.74 734.64 1764.61 741.046C1769.03 752.64 1773.1 764.214 1776.86 775.746C1784.25 746.723 1814.79 720.727 1843.07 703.965C1860.93 793.092 1816.75 820.926 1790.81 824.12C1794.8 839.944 1798.22 855.625 1801.09 871.102C1812.7 842.674 1848.69 821.897 1880.51 810.309C1881.58 899.547 1834.79 919.671 1808.4 918.807C1809.97 931.832 1811.17 944.656 1812.03 957.239C1824.86 929.601 1861.12 910.237 1893 899.763C1891.15 992.774 1839.72 1009.07 1814.24 1005.59C1814.07 1005.26 1813.91 1004.94 1813.75 1004.61C1813.81 1022.09 1813.22 1038.94 1812.08 1055.02C1831.72 1032.8 1870.03 1023.1 1902.41 1020.52C1880.32 1104.32 1832.09 1113.28 1806.24 1106.52C1805.53 1110.94 1804.79 1115.26 1804 1119.5C1803.61 1121.61 1803.18 1123.98 1802.71 1126.6C1801.51 1133.26 1800.02 1141.52 1798.1 1151.15C1818.43 1127.81 1859.76 1120.27 1893.94 1120.11C1864.07 1206.61 1811.38 1207.72 1787.6 1197.12C1784.16 1210.42 1780.05 1224.87 1775.13 1240.23C1797.71 1219.24 1839.35 1215.81 1873.23 1218.95C1834.73 1302.91 1781.56 1298.03 1759.28 1284.89C1754.12 1298.14 1748.35 1311.82 1741.91 1325.81C1768.41 1313.28 1806.88 1318.6 1837.41 1328.17C1787.06 1395.64 1740.25 1388.39 1717.95 1373.32C1712.8 1382.68 1707.32 1392.13 1701.52 1401.62C1728.02 1388.88 1766.69 1394.2 1797.35 1403.81C1742.73 1477.01 1692.29 1462.27 1672.77 1444.99C1663.82 1457.47 1654.26 1469.96 1644.03 1482.39C1673.01 1477.33 1708.78 1493 1735.67 1510.62C1669.37 1561.4 1626.48 1542.39 1608.86 1521.98C1602.2 1528.94 1595.31 1535.85 1588.19 1542.7C1617.13 1537.78 1652.77 1553.41 1679.59 1570.97C1608.16 1625.68 1563.9 1599.39 1549.15 1577.62C1539.49 1585.65 1529.45 1593.57 1519.04 1601.35C1549.04 1599.53 1583.17 1621 1607.72 1643.07C1529.05 1686.17 1489.29 1653.78 1477.88 1630.04C1466.71 1637.3 1455.15 1644.41 1443.19 1651.34C1471.2 1658.52 1497.49 1686.01 1515.22 1711.98C1437.88 1732.7 1404.92 1702.34 1394.85 1677.26C1359.43 1694.8 1320.91 1710.85 1279 1725C1275.8 1720.6 1273 1710.83 1272 1706.5C1304.78 1696.85 1345.07 1681.75 1388.63 1659.98C1372.11 1640.01 1358.95 1588.46 1435.36 1537.01C1444.02 1570.16 1447.36 1612.16 1429.9 1637.8C1441.6 1631.06 1453.44 1623.84 1465.33 1616.13C1447.08 1596.2 1433.63 1552.43 1488.65 1492.03C1503.89 1520.28 1516.45 1557.19 1509.01 1585.62C1517.51 1579.24 1525.98 1572.6 1534.41 1565.69C1513.48 1548.59 1494 1507.45 1538.96 1439.76C1558.89 1466.12 1577.39 1501.98 1572.98 1531.73C1580.68 1524.46 1588.3 1516.94 1595.83 1509.17C1573.35 1495.04 1546.27 1452.85 1595.05 1379.4C1615.23 1406.11 1633.95 1442.55 1628.89 1472.53C1638.14 1461.52 1647.17 1450.07 1655.94 1438.17C1631.2 1427.29 1601.58 1392.98 1626.29 1315.9C1653.08 1336.17 1681.13 1366.27 1684.26 1396.61C1690.69 1386.38 1696.92 1375.86 1702.93 1365.04C1677.44 1357.84 1639.26 1324.74 1666.34 1240.26C1693.68 1260.94 1722.34 1291.88 1724.48 1322.84C1730.63 1309.67 1736.47 1296.11 1741.94 1282.14C1715.49 1276.58 1679.56 1249.17 1687.54 1168.85C1716.52 1182.36 1748.48 1204.36 1759.61 1231.46C1763.19 1219.82 1766.52 1207.94 1769.59 1195.8C1742.72 1192.91 1704.12 1169.21 1704.25 1088.32C1733.76 1098.72 1766.92 1116.93 1781.17 1141.96C1783.31 1129.97 1785.21 1117.75 1786.85 1105.29C1759.91 1105.79 1716.99 1086.48 1710.88 1002.97C1742.23 1011.45 1778.13 1028.03 1793.34 1053.49C1794.49 1040.26 1795.18 1025.88 1795.28 1010.51C1768.61 1014.77 1726.66 1002.31 1702.73 927.848C1734.44 928.68 1772.19 936.001 1793.3 956.06C1792.48 945.421 1791.39 934.483 1790 923.286C1763.87 930.114 1718.76 921.563 1691.23 844.424C1722.2 844.253 1759.12 850.079 1781.08 868.384C1778.72 856.644 1776.02 844.713 1772.98 832.626C1748.1 843.208 1703.55 841.293 1663.35 772.47C1694.46 766.443 1732.84 765.435 1757.79 780.405C1754.24 769.683 1750.41 758.887 1746.26 748.039C1722.86 761.115 1674.58 764.49 1631.35 690.47C1662.13 684.506 1700.03 683.457 1724.99 697.937C1718.58 684.252 1711.64 670.544 1704.15 656.86C1683.12 673.808 1638.38 684.549 1581.68 625.213C1611.2 611.843 1649.32 601.815 1677.24 611.651C1669.88 600.259 1662.11 588.92 1653.91 577.662C1635.26 597.154 1591.7 613.845 1527.99 560.505C1555.87 543.927 1592.69 529.722 1621.54 536.455C1612.5 525.756 1603.02 515.164 1593.09 504.705C1577.48 525.837 1532.08 550.349 1462.99 492.505C1490.73 476.009 1527.33 461.862 1556.12 468.357C1545.86 458.95 1535.2 449.684 1524.12 440.579Z" fill="white"/>
<path d="M994.895 111.264C997.24 107.468 1002.76 107.468 1005.1 111.264L1038.77 165.764C1039.6 167.105 1040.92 168.067 1042.45 168.44L1104.69 183.617C1109.02 184.674 1110.73 189.924 1107.84 193.326L1066.42 242.186C1065.4 243.389 1064.89 244.944 1065.01 246.516L1069.81 310.396C1070.14 314.845 1065.68 318.09 1061.55 316.397L1002.28 292.093C1000.82 291.495 999.182 291.495 997.724 292.093L938.453 316.397C934.325 318.09 929.859 314.845 930.193 310.396L934.992 246.516C935.11 244.944 934.604 243.389 933.585 242.186L892.155 193.326C889.27 189.924 890.975 184.674 895.31 183.617L957.546 168.44C959.078 168.067 960.401 167.106 961.23 165.764L994.895 111.264Z" fill="white"/>
<path d="M708.694 221.856C710.281 219.524 713.719 219.524 715.306 221.856L732.282 246.785C732.804 247.553 733.577 248.115 734.468 248.374L763.424 256.815C766.132 257.604 767.194 260.874 765.467 263.104L747.003 286.952C746.435 287.686 746.139 288.595 746.168 289.523L747.088 319.669C747.174 322.489 744.393 324.509 741.738 323.556L713.352 313.365C712.478 313.052 711.522 313.052 710.648 313.365L682.262 323.556C679.607 324.509 676.826 322.489 676.912 319.669L677.832 289.523C677.861 288.595 677.565 287.686 676.997 286.952L658.533 263.104C656.806 260.874 657.868 257.604 660.576 256.815L689.532 248.374C690.423 248.115 691.196 247.553 691.718 246.785L708.694 221.856Z" fill="white"/>
<path d="M1284.69 221.856C1286.28 219.524 1289.72 219.524 1291.31 221.856L1308.28 246.785C1308.8 247.553 1309.58 248.115 1310.47 248.374L1339.42 256.815C1342.13 257.604 1343.19 260.874 1341.47 263.104L1323 286.952C1322.43 287.686 1322.14 288.595 1322.17 289.523L1323.09 319.669C1323.17 322.489 1320.39 324.509 1317.74 323.556L1289.35 313.365C1288.48 313.052 1287.52 313.052 1286.65 313.365L1258.26 323.556C1255.61 324.509 1252.83 322.489 1252.91 319.669L1253.83 289.523C1253.86 288.595 1253.57 287.686 1253 286.952L1234.53 263.104C1232.81 260.874 1233.87 257.604 1236.58 256.815L1265.53 248.374C1266.42 248.115 1267.2 247.553 1267.72 246.785L1284.69 221.856Z" fill="white"/>
<path d="M792.648 1799.41C792.336 1806.78 792.18 1814.35 792.18 1822.14V1833.78H789.328L788.352 1833.74L774.484 1833.86C773.599 1833.86 773.13 1833.87 773.078 1833.9C773.078 1833.87 773.13 1833.65 773.234 1833.23V1833L773.273 1832.84C773.143 1830.97 773.078 1828.69 773.078 1826.01L773.234 1782.38L773.195 1780.34V1778.39L773.117 1774.72C773.117 1774.46 773.26 1774.18 773.547 1773.9H778.898L782.023 1773.86C789.367 1773.86 794.615 1773.96 797.766 1774.17C800.943 1774.38 803.221 1774.48 804.602 1774.48C805.357 1778.96 806.477 1784.9 807.961 1792.3L810.734 1806.28H812.102L817.102 1780.73C817.18 1780.34 817.362 1779.21 817.648 1777.34C817.935 1775.43 818.156 1774.38 818.312 1774.17H818.469L843.898 1773.94L845.422 1773.98H849.797C850.031 1774.08 850.161 1774.56 850.188 1775.42L850.578 1790.19C850.891 1802.43 851.112 1811.96 851.242 1818.78C851.242 1824.04 851.164 1828.98 851.008 1833.59C850.93 1833.9 850.409 1834.08 849.445 1834.13L847.688 1834.21C846.281 1834.26 845.24 1834.29 844.562 1834.29H842.531C840.005 1834.32 836.281 1834.33 831.359 1834.33C830.448 1833.52 829.992 1830.03 829.992 1823.86L830.07 1811.59V1808.43C830.07 1805.64 830.057 1803.59 830.031 1802.26L828.547 1801.98C827.688 1805.14 826.034 1812.15 823.586 1823.04L823.234 1824.6C823.052 1825.41 822.74 1826.85 822.297 1828.94C821.88 1830.99 821.542 1832.56 821.281 1833.62C820.969 1833.99 819.589 1834.17 817.141 1834.17H816.633L812.258 1834.05L809.875 1834.09H808.039L804.953 1834.13H803.859C802.661 1834.13 801.997 1833.86 801.867 1833.31L801.906 1833.35L798.352 1817.84C798.247 1817.45 798.013 1816.61 797.648 1815.3C797.284 1813.98 797.076 1812.87 797.023 1811.98L794.094 1799.33L792.648 1799.41ZM889.552 1799.41C889.239 1806.78 889.083 1814.35 889.083 1822.14V1833.78H886.231L885.255 1833.74L871.387 1833.86C870.502 1833.86 870.033 1833.87 869.981 1833.9C869.981 1833.87 870.033 1833.65 870.137 1833.23V1833L870.177 1832.84C870.046 1830.97 869.981 1828.69 869.981 1826.01L870.137 1782.38L870.098 1780.34V1778.39L870.02 1774.72C870.02 1774.46 870.164 1774.18 870.45 1773.9H875.802L878.927 1773.86C886.27 1773.86 891.518 1773.96 894.669 1774.17C897.846 1774.38 900.124 1774.48 901.505 1774.48C902.26 1778.96 903.38 1784.9 904.864 1792.3L907.637 1806.28H909.005L914.005 1780.73C914.083 1780.34 914.265 1779.21 914.552 1777.34C914.838 1775.43 915.059 1774.38 915.216 1774.17H915.372L940.802 1773.94L942.325 1773.98H946.7C946.934 1774.08 947.065 1774.56 947.091 1775.42L947.481 1790.19C947.794 1802.43 948.015 1811.96 948.145 1818.78C948.145 1824.04 948.067 1828.98 947.911 1833.59C947.833 1833.9 947.312 1834.08 946.348 1834.13L944.591 1834.21C943.184 1834.26 942.143 1834.29 941.466 1834.29H939.434C936.908 1834.32 933.184 1834.33 928.262 1834.33C927.351 1833.52 926.895 1830.03 926.895 1823.86L926.973 1811.59V1808.43C926.973 1805.64 926.96 1803.59 926.934 1802.26L925.45 1801.98C924.591 1805.14 922.937 1812.15 920.489 1823.04L920.137 1824.6C919.955 1825.41 919.643 1826.85 919.2 1828.94C918.783 1830.99 918.445 1832.56 918.184 1833.62C917.872 1833.99 916.492 1834.17 914.044 1834.17H913.536L909.161 1834.05L906.778 1834.09H904.942L901.856 1834.13H900.762C899.565 1834.13 898.901 1833.86 898.77 1833.31L898.809 1833.35L895.255 1817.84C895.151 1817.45 894.916 1816.61 894.552 1815.3C894.187 1813.98 893.979 1812.87 893.927 1811.98L890.997 1799.33L889.552 1799.41ZM1025.56 1774.88L1025.52 1775.19L1016.3 1789.95C1016.25 1790.06 1015.52 1791.22 1014.11 1793.43L1007.39 1804.09L1008.25 1805.66L1009.46 1807.34L1012.82 1812.45L1013.76 1814.09C1013.97 1814.46 1014.32 1815.01 1014.81 1815.73C1015.31 1816.46 1015.58 1816.87 1015.63 1816.95V1816.91L1022.67 1827.77V1827.73L1026.18 1833.31C1026.26 1833.39 1026.3 1833.48 1026.3 1833.59C1026.3 1833.95 1025.65 1834.17 1024.35 1834.25L1004.31 1834.41C1002.74 1834.41 1001.66 1834.22 1001.06 1833.86C1000.88 1833.39 1000.57 1832.73 1000.13 1831.87C999.684 1831.01 999.397 1830.43 999.267 1830.15L992.978 1816.98C991.442 1819.9 990.413 1821.96 989.892 1823.16C987.054 1829.33 985.022 1833 983.798 1834.17C979.84 1834.07 975.504 1834.02 970.791 1834.02C970.791 1834.02 969.944 1834.03 968.252 1834.05H960.947C960.817 1833.98 960.752 1833.9 960.752 1833.82C960.752 1833.07 962.002 1830.84 964.502 1827.14C964.684 1826.96 964.814 1826.76 964.892 1826.55L979.58 1803.55L975.986 1797.65C973.147 1792.6 970.374 1787.82 967.666 1783.31L962.236 1774.33C962.21 1774.28 962.197 1774.22 962.197 1774.17H968.408C973.486 1774.17 977.548 1774.28 980.595 1774.48C982.991 1774.48 984.827 1774.47 986.103 1774.45C987.093 1775.41 989.137 1779.64 992.236 1787.14L992.822 1788.7L994.15 1791.32L995.361 1788.59C996.142 1786.71 997.34 1784.03 998.955 1780.54C1000.57 1777.05 1001.61 1775.03 1002.08 1774.48L1002.27 1774.6L1006.73 1774.45C1015.43 1774.13 1021.58 1773.98 1025.2 1773.98C1025.44 1774.11 1025.56 1774.41 1025.56 1774.88ZM1026.26 1833.31H1026.18V1833.2L1026.26 1833.31ZM1026.14 1833.08L1026.18 1833.2C1026.16 1833.17 1026.14 1833.13 1026.14 1833.08ZM1099.26 1774.88L1099.22 1775.19L1090 1789.95C1089.95 1790.06 1089.22 1791.22 1087.81 1793.43L1081.09 1804.09L1081.95 1805.66L1083.16 1807.34L1086.52 1812.45L1087.46 1814.09C1087.67 1814.46 1088.02 1815.01 1088.51 1815.73C1089.01 1816.46 1089.28 1816.87 1089.33 1816.95V1816.91L1096.37 1827.77V1827.73L1099.88 1833.31C1099.96 1833.39 1100 1833.48 1100 1833.59C1100 1833.95 1099.35 1834.17 1098.05 1834.25L1078.01 1834.41C1076.44 1834.41 1075.36 1834.22 1074.76 1833.86C1074.58 1833.39 1074.27 1832.73 1073.83 1831.87C1073.38 1831.01 1073.1 1830.43 1072.97 1830.15L1066.68 1816.98C1065.14 1819.9 1064.11 1821.96 1063.59 1823.16C1060.75 1829.33 1058.72 1833 1057.5 1834.17C1053.54 1834.07 1049.2 1834.02 1044.49 1834.02C1044.49 1834.02 1043.64 1834.03 1041.95 1834.05H1034.65C1034.52 1833.98 1034.45 1833.9 1034.45 1833.82C1034.45 1833.07 1035.7 1830.84 1038.2 1827.14C1038.38 1826.96 1038.51 1826.76 1038.59 1826.55L1053.28 1803.55L1049.69 1797.65C1046.85 1792.6 1044.07 1787.82 1041.37 1783.31L1035.94 1774.33C1035.91 1774.28 1035.9 1774.22 1035.9 1774.17H1042.11C1047.19 1774.17 1051.25 1774.28 1054.3 1774.48C1056.69 1774.48 1058.53 1774.47 1059.8 1774.45C1060.79 1775.41 1062.84 1779.64 1065.94 1787.14L1066.52 1788.7L1067.85 1791.32L1069.06 1788.59C1069.84 1786.71 1071.04 1784.03 1072.65 1780.54C1074.27 1777.05 1075.31 1775.03 1075.78 1774.48L1075.98 1774.6L1080.43 1774.45C1089.13 1774.13 1095.28 1773.98 1098.9 1773.98C1099.14 1774.11 1099.26 1774.41 1099.26 1774.88ZM1099.96 1833.31H1099.88V1833.2L1099.96 1833.31ZM1099.84 1833.08L1099.88 1833.2C1099.86 1833.17 1099.84 1833.13 1099.84 1833.08ZM1113.23 1828.82C1113.23 1823.53 1113.37 1819.86 1113.66 1817.8C1113.66 1806.48 1113.82 1795.06 1114.13 1783.55C1114.05 1781.91 1114.01 1780.25 1114.01 1778.59V1777.3C1113.91 1776.49 1113.85 1775.77 1113.85 1775.15C1113.85 1774.52 1113.92 1774.12 1114.05 1773.94C1119.62 1774.28 1124.51 1774.45 1128.7 1774.45C1132.89 1774.45 1135.77 1774.37 1137.33 1774.21C1137.38 1774.29 1137.42 1774.51 1137.45 1774.88H1137.17V1789.02L1137.45 1820.81C1137.45 1821.05 1137.49 1821.24 1137.57 1821.4V1821.48C1137.64 1821.63 1137.68 1821.8 1137.68 1821.98L1138 1833.35C1137.87 1833.64 1137.63 1833.86 1137.29 1834.02H1135.96L1114.09 1834.37C1113.83 1834.24 1113.49 1834.04 1113.07 1833.78L1113.11 1833.12L1113.23 1828.82ZM1157.32 1828.82C1157.32 1823.53 1157.46 1819.86 1157.75 1817.8C1157.75 1806.48 1157.91 1795.06 1158.22 1783.55C1158.14 1781.91 1158.1 1780.25 1158.1 1778.59V1777.3C1158 1776.49 1157.95 1775.77 1157.95 1775.15C1157.95 1774.52 1158.01 1774.12 1158.14 1773.94C1163.71 1774.28 1168.6 1774.45 1172.79 1774.45C1176.98 1774.45 1179.86 1774.37 1181.42 1774.21C1181.47 1774.29 1181.51 1774.51 1181.54 1774.88H1181.27V1789.02L1181.54 1820.81C1181.54 1821.05 1181.58 1821.24 1181.66 1821.4V1821.48C1181.73 1821.63 1181.77 1821.8 1181.77 1821.98L1182.09 1833.35C1181.96 1833.64 1181.72 1833.86 1181.38 1834.02H1180.05L1158.18 1834.37C1157.92 1834.24 1157.58 1834.04 1157.16 1833.78L1157.2 1833.12L1157.32 1828.82ZM1201.41 1828.82C1201.41 1823.53 1201.55 1819.86 1201.84 1817.8C1201.84 1806.48 1202 1795.06 1202.31 1783.55C1202.23 1781.91 1202.19 1780.25 1202.19 1778.59V1777.3C1202.09 1776.49 1202.04 1775.77 1202.04 1775.15C1202.04 1774.52 1202.1 1774.12 1202.23 1773.94C1207.8 1774.28 1212.69 1774.45 1216.88 1774.45C1221.07 1774.45 1223.95 1774.37 1225.51 1774.21C1225.56 1774.29 1225.6 1774.51 1225.63 1774.88H1225.36V1789.02L1225.63 1820.81C1225.63 1821.05 1225.67 1821.24 1225.75 1821.4V1821.48C1225.83 1821.63 1225.86 1821.8 1225.86 1821.98L1226.18 1833.35C1226.05 1833.64 1225.81 1833.86 1225.47 1834.02H1224.15L1202.27 1834.37C1202.01 1834.24 1201.67 1834.04 1201.25 1833.78L1201.29 1833.12L1201.41 1828.82Z" fill="white"/>
</g>
<defs>
<linearGradient id="paint0_linear_100_5" x1="1000" y1="0" x2="1000" y2="2000" gradientUnits="userSpaceOnUse">
<stop stop-color="#274C94"/>
<stop offset="1" stop-color="#6DC4F5"/>
</linearGradient>
<clipPath id="clip0_100_5">
<rect width="2000" height="2000" rx="999" fill="white"/>
</clipPath>
</defs>
</svg>
