<svg width="767" height="719" viewBox="0 0 767 719" fill="none" xmlns="http://www.w3.org/2000/svg">
<path fill-rule="evenodd" clip-rule="evenodd" d="M732 18V2C732 0.89543 732.895 0 734 0H765C766.105 0 767 0.895431 767 2V33C767 34.1046 766.105 35 765 35H750V712C750 715.314 747.314 718 744 718H507.985C506.394 718 504.868 717.368 503.743 716.243L479.257 691.757C478.132 690.632 476.606 690 475.015 690H5.99999C2.68629 690 0 687.314 0 684V76.4853C0 74.894 0.632142 73.3679 1.75736 72.2426L54.2426 19.7574C55.3679 18.6321 56.894 18 58.4853 18H732ZM736 18V4H763V31H750V24C750 20.6863 747.314 18 744 18H736ZM749 35V712C749 714.761 746.761 717 744 717H507.985C506.659 717 505.387 716.473 504.45 715.536L479.964 691.05C478.652 689.737 476.871 689 475.015 689H5.99999C3.23857 689 1 686.761 1 684V76.4853C1 75.1592 1.52679 73.8874 2.46447 72.9498L54.9497 20.4645C55.8874 19.5268 57.1592 19 58.4853 19H732V33C732 34.1046 732.895 35 734 35H749ZM749 31H736V19H744C746.761 19 749 21.2386 749 24V31Z" fill="white"/>
<path d="M405 719H0V703H405V719Z" fill="white"/>
<path d="M464.5 719H416V703H464.5V719Z" fill="white"/>
</svg>
