<svg width="32" height="32" viewBox="0 0 32 32" fill="none" xmlns="http://www.w3.org/2000/svg">
<path d="M16.7071 20.2071L23.0711 13.8431C23.4616 13.4526 23.4616 12.8195 23.0711 12.4289C22.6805 12.0384 22.0474 12.0384 21.6569 12.4289L16.0858 18H15.9142L10.3431 12.4289C9.95262 12.0384 9.31946 12.0384 8.92893 12.4289C8.53841 12.8195 8.53841 13.4526 8.92893 13.8431L15.2929 20.2071C15.6834 20.5976 16.3166 20.5976 16.7071 20.2071Z" fill="white"/>
<path fill-rule="evenodd" clip-rule="evenodd" d="M0 16C0 7.16344 7.16344 0 16 0C24.8366 0 32 7.16344 32 16C32 24.8366 24.8366 32 16 32C7.16344 32 0 24.8366 0 16ZM16 30C8.26801 30 2 23.732 2 16C2 8.26801 8.26801 2 16 2C23.732 2 30 8.26801 30 16C30 23.732 23.732 30 16 30Z" fill="white"/>
</svg>
