<svg width="24" height="24" viewBox="0 0 24 24" fill="none" xmlns="http://www.w3.org/2000/svg">
<path fill-rule="evenodd" clip-rule="evenodd" d="M11.9225 0C18.505 0 23.8429 5.24405 23.8429 11.7127C23.8429 14.8454 22.5905 17.6931 20.5487 19.7946C21.2127 21.7457 21.4314 21.1559 24 21.5289V23.9703C20.167 24.1226 20.9304 23.7476 18.5229 21.4645C16.6322 22.7027 14.3638 23.4234 11.9225 23.4234C5.33797 23.4234 0 18.1794 0 11.7127C0 5.24405 5.33996 0 11.9225 0ZM5.49304 8.64243C7.26441 8.64243 8.70179 10.0526 8.70179 11.7947C8.70179 13.5349 7.2664 14.9451 5.49304 14.9451C3.72167 14.9451 2.28628 13.5349 2.28628 11.7947C2.28628 10.0526 3.72167 8.64243 5.49304 8.64243ZM18.505 8.64243C20.2763 8.64243 21.7137 10.0526 21.7137 11.7947C21.7137 13.5349 20.2783 14.9451 18.505 14.9451C16.7336 14.9451 15.2982 13.5349 15.2982 11.7947C15.2982 10.0526 16.7336 8.64243 18.505 8.64243ZM12.0934 2.12106C13.8648 2.12106 15.3002 3.53119 15.3002 5.27335C15.3002 7.01355 13.8648 8.42368 12.0934 8.42368C10.3221 8.42368 8.88469 7.01355 8.88469 5.27335C8.88469 3.53314 10.3221 2.12106 12.0934 2.12106ZM11.9801 10.0994C12.8907 10.0994 13.6302 10.826 13.6302 11.7205C13.6302 12.615 12.8907 13.3416 11.9801 13.3416C11.0696 13.3416 10.33 12.615 10.33 11.7205C10.33 10.824 11.0696 10.0994 11.9801 10.0994ZM12.0934 15.3083C13.8648 15.3083 15.3002 16.7185 15.3002 18.4606C15.3002 20.2008 13.8648 21.611 12.0934 21.611C10.3221 21.611 8.88469 20.2008 8.88469 18.4606C8.88469 16.7204 10.3221 15.3083 12.0934 15.3083Z" fill="white"/>
</svg>
