<svg width="24" height="24" viewBox="0 0 24 24" fill="none" xmlns="http://www.w3.org/2000/svg">
<path d="M3.90239 0H20.0949C22.2526 0 23.9973 1.7433 23.9973 3.90101V20.0908C23.9973 22.2457 22.2526 23.9904 20.0949 23.9904H6.39164L6.34605 13.6549H6.33915V13.5817C6.33915 9.66274 9.45001 6.49524 13.3013 6.49524C15.611 6.49524 17.4786 8.39602 17.4786 10.7471C17.4786 13.0982 15.611 14.999 13.3013 14.999C12.5305 14.999 11.9089 14.3636 11.9089 13.5817C11.9089 12.7971 12.5305 12.1644 13.3013 12.1644C14.0707 12.1644 14.6937 11.529 14.6937 10.7471C14.6937 9.9625 14.0721 9.32983 13.3013 9.32983C10.9902 9.32983 9.12401 11.2306 9.12401 13.5817C9.12401 15.9328 10.9889 17.8322 13.3013 17.8322C17.1512 17.8322 20.2634 14.6633 20.2634 10.7457C20.2634 6.82677 17.1512 3.65927 13.3013 3.65927C7.91115 3.65927 3.55291 8.0935 3.55291 13.5803V13.666H3.5308L3.57639 23.9766C1.57201 23.8122 0 22.138 0 20.0894V3.89963C0 1.74606 1.74468 0 3.90239 0Z" fill="white"/>
</svg>
