<svg width="64" height="61" viewBox="0 0 64 61" fill="none" xmlns="http://www.w3.org/2000/svg">
<path d="M33.2218 14.9984L32.0922 13.5176L30.9626 14.9984C30.7118 15.3272 29.9772 15.916 28.7194 16.6278C27.5192 17.3069 26.0001 18.0114 24.3627 18.6213C22.725 19.2314 20.9998 19.7353 19.3882 20.0279C17.7581 20.3238 16.3352 20.3863 15.2613 20.1865L13.2887 19.8193L13.599 21.7947C13.6281 21.9799 13.6477 22.3174 13.6745 22.7812C13.7848 24.6835 14.0181 28.7099 15.5376 33.0606L15.7106 33.52L15.7035 33.5227C16.6053 35.9687 17.9255 38.5478 19.8638 41.0455C19.9785 41.0739 20.0939 41.1023 20.2097 41.1308L20.2173 41.1326L20.2173 41.1326C20.8805 41.2955 21.5599 41.4624 22.2329 41.6715C15.9024 34.6379 15.3326 26.5665 15.1165 23.0272C15.1136 22.9788 15.1107 22.9313 15.1079 22.8847C15.0729 22.3082 15.0458 21.8631 15.0007 21.5761C15.4506 21.6598 15.9358 21.7042 16.4479 21.7139C21.1622 21.8031 28.1677 18.9544 31.0478 16.8169C31.5121 16.4723 31.8692 16.1462 32.0922 15.8538C32.3152 16.1462 32.6723 16.4723 33.1366 16.8169C36.0167 18.9544 43.0222 21.8031 47.7365 21.7139C48.2486 21.7042 48.7338 21.6598 49.1836 21.5761C49.1386 21.8631 49.1115 22.3082 49.0765 22.8847C49.0737 22.9313 49.0708 22.9788 49.0678 23.0272C48.8518 26.5673 48.2818 34.6414 41.9473 41.6762C42.6252 41.4648 43.3097 41.2967 43.9778 41.1326L43.9854 41.1308C44.0968 41.1034 44.2077 41.0761 44.3181 41.0488C46.2626 38.5438 47.5853 35.9568 48.4877 33.5043C50.1503 28.9855 50.3959 24.748 50.5099 22.7812L50.5099 22.7808C50.5368 22.3173 50.5563 21.9799 50.5854 21.7947L50.8957 19.8193L48.9231 20.1865C47.8492 20.3863 46.4263 20.3238 44.7962 20.0279C43.1845 19.7353 41.4594 19.2314 39.8217 18.6213C38.1843 18.0114 36.6651 17.3069 35.465 16.6278C34.2072 15.916 33.4726 15.3272 33.2218 14.9984Z" fill="white"/>
<path d="M33.9536 47.908C34.2625 48.0186 34.5229 48.1605 34.7696 48.2953L34.7928 48.308L34.7929 48.308C34.942 48.3895 35.0995 48.4756 35.2647 48.5466C35.2325 48.6446 35.2019 48.7448 35.1726 48.8467C34.3915 49.2931 33.5702 49.7241 32.7067 50.1375L32.0922 50.4317L31.4777 50.1375C30.6189 49.7264 29.8019 49.2978 29.0246 48.8541C28.9946 48.7496 28.9634 48.647 28.9304 48.5466C29.0956 48.4756 29.2531 48.3895 29.4023 48.308L29.4255 48.2953C29.6705 48.1614 29.929 48.0206 30.2351 47.9103C30.83 48.2373 31.4487 48.5553 32.0922 48.8633C32.7372 48.5545 33.3573 48.2358 33.9536 47.908Z" fill="white"/>
<path d="M49.2886 34.0846C49.6931 34.309 50.0657 34.5759 50.3463 34.8673C50.8174 35.3567 50.948 35.8114 50.7519 36.2557C50.4495 36.9407 50.1082 37.5072 49.7379 37.9813C49.5484 38.2239 49.3505 38.4433 49.1453 38.6426C49.1223 38.6224 49.099 38.6025 49.0757 38.583C48.8551 38.3989 48.5758 38.2103 48.3003 38.0388C48.0439 37.8793 47.7775 37.7264 47.5422 37.5961C48.2236 36.4171 48.8001 35.2408 49.2886 34.0846Z" fill="white"/>
<path d="M16.622 37.6041C15.9418 36.4279 15.366 35.2543 14.8778 34.1006C14.4844 34.3217 14.1228 34.5828 13.8488 34.8673C13.3777 35.3567 13.2471 35.8114 13.4432 36.2557C13.7456 36.9407 14.0869 37.5072 14.4572 37.9813C14.6462 38.2232 14.8434 38.442 15.0481 38.6409C15.0755 38.6166 15.1033 38.5927 15.1312 38.5695C15.3578 38.3807 15.6442 38.1876 15.9251 38.0129C16.1612 37.866 16.4042 37.7256 16.622 37.6041Z" fill="white"/>
<path d="M31.4895 47.3545C28.7051 45.0572 25.8622 43.2902 22.5864 42.1592C21.777 41.8797 20.9477 41.676 20.1248 41.4739C18.3355 41.0344 16.5767 40.6024 15.1199 39.4151C14.7365 39.1026 14.374 38.7379 14.0373 38.3069C13.6378 37.7953 13.2746 37.1905 12.9562 36.4691C12.9562 44.1207 16.8579 45.7641 21.0967 47.1424C24.2513 48.1683 25.9311 49.7707 27.3542 51.1283C28.1672 51.9039 28.8965 52.5996 29.7692 53.0622C29.4062 52.1484 29.2027 51.209 29.0146 50.3406C28.8535 49.5969 28.7036 48.9052 28.4745 48.3264C28.731 48.2716 28.9769 48.1373 29.255 47.9854C29.7847 47.696 30.4312 47.3429 31.4895 47.3545Z" fill="white"/>
<path d="M32.7056 47.3545C35.49 45.0572 38.3329 43.2902 41.6087 42.1592C42.4181 41.8797 43.2474 41.676 44.0703 41.4739C45.8596 41.0344 47.6184 40.6024 49.0752 39.4151C49.4586 39.1026 49.8211 38.7379 50.1578 38.3069C50.5573 37.7953 50.9205 37.1905 51.2389 36.4691C51.2389 44.1207 47.3372 45.7641 43.0985 47.1424C39.9438 48.1683 38.264 49.7707 36.8409 51.1283C36.0279 51.9039 35.2986 52.5996 34.4259 53.0622C34.7889 52.1484 34.9924 51.209 35.1805 50.3406L35.1805 50.3406L35.1806 50.3405C35.3417 49.5968 35.4915 48.9052 35.7206 48.3264C35.4641 48.2716 35.2182 48.1373 34.9401 47.9854C34.4104 47.696 33.7639 47.3429 32.7056 47.3545Z" fill="white"/>
<path fill-rule="evenodd" clip-rule="evenodd" d="M31.7726 24.654C31.9092 24.4184 32.2505 24.4184 32.387 24.654L38.7918 35.7072C38.9283 35.9429 38.7576 36.2374 38.4846 36.2374H33.9775C33.9727 35.2069 33.1329 34.3731 32.0975 34.3731C31.0622 34.3731 30.2224 35.2069 30.2176 36.2374H25.675C25.402 36.2374 25.2313 35.9429 25.3678 35.7072L31.7726 24.654ZM32.0266 28.9898C31.9433 29.0083 31.8664 29.0601 31.8188 29.145L30.5504 31.4083C30.5077 31.4844 30.5002 31.5667 30.5193 31.6411C30.5501 31.7611 30.6503 31.8603 30.7845 31.8785C30.799 31.8804 30.8138 31.8815 30.8291 31.8815H33.366C33.6097 31.8815 33.7636 31.6203 33.6447 31.4083L32.3763 29.145C32.302 29.0126 32.1565 28.9608 32.0266 28.9898Z" fill="white"/>
<path fill-rule="evenodd" clip-rule="evenodd" d="M31.8959 19.5311L31.7377 19.656L31.7633 19.6882C31.3936 20.0862 30.6751 20.581 29.7148 21.0994C28.6693 21.6639 27.3604 22.2442 25.962 22.7461C24.5636 23.2479 23.0795 23.6699 21.6835 23.9193C20.2851 24.1691 18.9869 24.2434 17.9552 24.0592L17.7086 24.0151L17.7489 24.2615C17.7683 24.3799 17.7903 24.5351 17.817 24.7235C18.2497 27.7767 19.9225 39.579 31.8502 45.6793L31.9093 45.7948L31.9934 45.7521L32.0774 45.7948L32.1365 45.6793C44.1883 39.516 45.9731 27.5331 46.4053 24.6312L46.4053 24.6311C46.4272 24.4839 46.4457 24.3601 46.4618 24.2615L46.5022 24.0151L46.2555 24.0592C45.2238 24.2434 43.9116 24.1691 42.4918 23.9192C41.0746 23.6697 39.5623 23.2477 38.1357 22.7457C36.7092 22.2438 35.3722 21.6633 34.3057 21.0987C33.3258 20.58 32.5948 20.0853 32.2237 19.688L32.2491 19.656L32.0909 19.5311L32.0157 19.4366L31.9934 19.4542L31.9711 19.4366L31.8959 19.5311ZM44.1316 31.9168C45.452 28.615 45.8722 25.7996 46.055 24.5751C46.056 24.5683 46.057 24.5616 46.058 24.5549L46.0597 24.5436C46.0648 24.5096 46.0697 24.4768 46.0744 24.4454C45.0279 24.589 43.7627 24.5018 42.4301 24.2672C40.9896 24.0137 39.4581 23.5858 38.0176 23.079C36.5771 22.5721 35.2236 21.9848 34.1393 21.4108C33.2092 20.9185 32.4583 20.4264 32.0266 19.9934V23.5054C31.8988 23.511 31.7733 23.5769 31.7002 23.7031L26.8834 31.9168H19.9841C21.7269 36.427 25.1423 41.8446 31.9934 45.3552C32.0045 45.3496 32.0155 45.3439 32.0266 45.3382V35.0092C32.039 35.009 32.0516 35.009 32.0642 35.009C33.224 35.009 33.4809 35.7734 33.4809 36.7983H38.7128C39.474 36.847 39.7592 36.1932 39.474 35.7691L37.2408 31.9168H44.1316Z" fill="white"/>
<path d="M32.1722 0.100611C32.089 -0.0335371 31.8932 -0.0335372 31.8101 0.100611L30.6159 2.02677C30.5865 2.07417 30.5396 2.10815 30.4853 2.12135L28.2777 2.65772C28.124 2.69507 28.0635 2.88061 28.1658 3.00087L29.6354 4.72768C29.6715 4.77017 29.6895 4.82514 29.6853 4.8807L29.5151 7.13836C29.5032 7.29559 29.6616 7.41026 29.808 7.35044L31.9104 6.4915C31.9621 6.47036 32.0201 6.47036 32.0719 6.4915L34.1743 7.35044C34.3207 7.41026 34.4791 7.29559 34.4672 7.13836L34.297 4.8807C34.2928 4.82514 34.3108 4.77017 34.3469 4.72768L35.8165 3.00087C35.9188 2.88061 35.8583 2.69507 35.7046 2.65772L33.497 2.12135C33.4427 2.10815 33.3957 2.07417 33.3664 2.02677L32.1722 0.100611Z" fill="white"/>
<path d="M13.4181 11.7393C14.3646 11.8913 15.8892 11.4462 16.6747 8.72812C14.9707 8.82488 12.7913 9.46372 12.9631 11.3293C12.544 11.6682 12.1412 12.0134 11.7543 12.3641C11.8767 11.3022 11.1612 10.0537 10.4095 9.14737C8.90749 11.6278 9.68735 13.0537 10.462 13.6153C10.1108 13.9787 9.77488 14.3469 9.45371 14.719C9.54939 13.6677 8.84422 12.4432 8.10391 11.5506C6.49434 14.2087 7.50517 15.6558 8.32199 16.126C8.0083 16.545 7.71165 16.9679 7.43132 17.3935C7.38811 16.3502 6.56241 15.2311 5.73866 14.4367C4.42909 17.2683 5.61052 18.5942 6.47569 18.9646C6.15381 19.5393 5.85936 20.117 5.59065 20.6955C5.33224 19.6662 4.24573 18.7439 3.23982 18.1499C2.65151 21.0749 3.96073 22.132 4.88762 22.3584C4.73096 22.7682 4.58642 23.1772 4.45339 23.5848C4.19105 22.5591 3.10783 21.6403 2.10477 21.0479C1.47123 24.1978 3.03816 25.1815 3.95849 25.2944C3.81678 25.8537 3.69573 26.4079 3.59369 26.9549C3.182 25.9501 1.90535 25.2158 0.776559 24.8063C0.738822 27.9601 2.3984 28.6714 3.33462 28.6408C3.27889 29.1012 3.23624 29.5544 3.20561 29.9991C2.75079 29.0223 1.46462 28.338 0.333722 27.9678C0.399213 31.255 2.22352 31.8309 3.12748 31.708C3.13335 31.6964 3.1391 31.6849 3.14474 31.6733C3.14263 32.2911 3.16348 32.8865 3.20389 33.455C2.50736 32.6696 1.14825 32.3266 0 32.2354C0.783584 35.1973 2.49414 35.5138 3.41124 35.2751C3.4362 35.4311 3.46267 35.584 3.49057 35.7337C3.50447 35.8084 3.51964 35.8922 3.53637 35.9846C3.579 36.2201 3.63182 36.5119 3.69998 36.8524C2.97881 36.0276 1.51267 35.7611 0.300356 35.7553C1.3598 38.8125 3.22891 38.8516 4.07219 38.4771C4.19429 38.9472 4.3399 39.4578 4.51458 40.0007C3.71371 39.2588 2.2365 39.1374 1.03486 39.2487C2.40043 42.2159 4.28654 42.0434 5.07668 41.579C5.25998 42.0472 5.46445 42.5307 5.6928 43.0253C4.75297 42.5824 3.3885 42.7703 2.30559 43.1086C4.09152 45.4932 5.75163 45.237 6.54263 44.7041C6.72562 45.0351 6.91974 45.3689 7.12569 45.7045C6.18551 45.2541 4.81389 45.4422 3.72628 45.782C5.66366 48.3688 7.45299 47.8479 8.14536 47.2374C8.46267 47.6785 8.80196 48.1198 9.16481 48.559C8.13679 48.3803 6.86794 48.9341 5.91409 49.5566C8.26577 51.3513 9.7874 50.6794 10.4122 49.9583C10.6484 50.2041 10.8927 50.4483 11.1455 50.6907C10.1191 50.5166 8.85465 51.069 7.90346 51.6898C10.4369 53.6232 12.007 52.6939 12.5304 51.9245C12.873 52.2083 13.2288 52.4882 13.5983 52.7633C12.5341 52.6989 11.3237 53.4577 10.4528 54.2379C13.2431 55.7609 14.6533 54.6164 15.0582 53.7774C15.4544 54.034 15.8645 54.2852 16.2888 54.5302C15.2952 54.7839 14.3626 55.7554 13.7337 56.6732C16.4771 57.4055 17.6461 56.3326 18.0033 55.446C19.2596 56.0659 20.6261 56.6332 22.1126 57.1334C22.2261 56.9779 22.3254 56.6327 22.3609 56.4795C21.1983 56.1385 19.7689 55.6047 18.2241 54.8353C18.8099 54.1296 19.2767 52.3079 16.5663 50.4893C16.2593 51.6609 16.1408 53.1455 16.7602 54.0515C16.3451 53.8132 15.9253 53.5581 15.5035 53.2856C16.1506 52.5814 16.6277 51.0345 14.6761 48.8996C14.1355 49.8981 13.6902 51.2026 13.9538 52.2074C13.6526 51.982 13.352 51.7472 13.0531 51.5029C13.7954 50.8986 14.4862 49.4447 12.8915 47.0525C12.1848 47.9841 11.5285 49.2514 11.6848 50.3029C11.4118 50.046 11.1414 49.7802 10.8745 49.5055C11.6719 49.006 12.6325 47.515 10.9021 44.9193C10.1863 45.863 9.52216 47.1512 9.7019 48.2105C9.37381 47.8214 9.05341 47.4168 8.74236 46.9963C9.61981 46.6115 10.6705 45.3991 9.79412 42.6751C8.84379 43.3912 7.84866 44.4552 7.73768 45.5272C7.50967 45.1657 7.28868 44.7939 7.07556 44.4115C7.97957 44.1571 9.33398 42.9873 8.37343 40.0017C7.40352 40.7326 6.38695 41.8259 6.31126 42.9201C6.0929 42.4548 5.88603 41.9755 5.69189 41.4819C6.63007 41.2851 7.90463 40.3166 7.62146 37.4779C6.59361 37.9554 5.45976 38.7328 5.06491 39.6905C4.93814 39.2794 4.81996 38.8594 4.71093 38.4302C5.66415 38.3283 7.03321 37.4905 7.02866 34.6316C5.98183 34.9993 4.8059 35.6428 4.30018 36.5277C4.22428 36.1038 4.15701 35.6718 4.09885 35.2316C5.05439 35.2491 6.57669 34.5666 6.79372 31.6154C5.68147 31.9151 4.40821 32.501 3.86848 33.401C3.82776 32.9333 3.8035 32.4249 3.79993 31.882C4.7458 32.0322 6.23366 31.5921 7.08276 28.9604C5.9577 28.9898 4.61878 29.2485 3.87001 29.9575C3.89915 29.5814 3.93786 29.1949 3.98711 28.7991C4.91409 29.0405 6.51403 28.7382 7.49054 26.012C6.3919 26.006 5.08258 26.2118 4.30363 26.8588C4.38738 26.4439 4.48285 26.0222 4.59098 25.595C5.47318 25.969 7.05359 25.9013 8.47951 23.469C7.376 23.256 6.01463 23.2204 5.12981 23.7494C5.25546 23.3705 5.39149 22.9889 5.53849 22.6055C6.36866 23.0677 8.08096 23.187 9.61457 20.571C8.52269 20.3602 7.17835 20.3231 6.29299 20.8348C6.52045 20.3512 6.76648 19.8667 7.03224 19.3831C7.77809 19.9821 9.36505 20.3617 11.3762 18.2646C10.3294 17.7921 8.97728 17.4377 7.98694 17.7853C8.24772 17.3827 8.52331 16.982 8.81438 16.5841C9.47568 17.273 11.0209 17.8629 13.2808 15.9777C12.2919 15.3918 10.9858 14.8898 9.9624 15.1277C10.2831 14.7496 10.6193 14.3753 10.9715 14.0056C11.5254 14.7525 13.1357 15.6188 15.5864 13.5745C14.6024 12.9915 13.3043 12.4915 12.2831 12.721C12.6468 12.3886 13.0249 12.0611 13.4181 11.7393Z" fill="white"/>
<path d="M50.5819 11.7393C49.6354 11.8913 48.1108 11.4462 47.3253 8.72812C49.0293 8.82488 51.2087 9.46372 51.0369 11.3293C51.456 11.6682 51.8588 12.0134 52.2457 12.3641C52.1233 11.3022 52.8388 10.0537 53.5905 9.14737C55.0925 11.6278 54.3126 13.0537 53.538 13.6153C53.8892 13.9787 54.2251 14.3469 54.5463 14.719C54.4506 13.6677 55.1558 12.4432 55.8961 11.5506C57.5057 14.2087 56.4948 15.6558 55.678 16.126C55.9917 16.545 56.2883 16.9679 56.5687 17.3935C56.6119 16.3502 57.4376 15.2311 58.2613 14.4367C59.5709 17.2683 58.3895 18.5942 57.5243 18.9646C57.8462 19.5393 58.1406 20.117 58.4094 20.6955C58.6678 19.6662 59.7543 18.7439 60.7602 18.1499C61.3485 21.0749 60.0393 22.132 59.1124 22.3584C59.269 22.7682 59.4136 23.1772 59.5466 23.5848C59.8089 22.5591 60.8922 21.6403 61.8952 21.0479C62.5288 24.1978 60.9618 25.1815 60.0415 25.2944C60.1832 25.8537 60.3043 26.4079 60.4063 26.9549C60.818 25.9501 62.0947 25.2158 63.2234 24.8063C63.2612 27.9601 61.6016 28.6714 60.6654 28.6408C60.7211 29.1012 60.7638 29.5544 60.7944 29.9991C61.2492 29.0223 62.5354 28.338 63.6663 27.9678C63.6008 31.255 61.7765 31.8309 60.8725 31.708C60.8667 31.6964 60.8609 31.6849 60.8553 31.6733C60.8574 32.2911 60.8365 32.8865 60.7961 33.455C61.4926 32.6696 62.8518 32.3266 64 32.2354C63.2164 35.1973 61.5059 35.5138 60.5888 35.2751C60.5638 35.4311 60.5373 35.584 60.5094 35.7337C60.4955 35.8084 60.4804 35.8922 60.4636 35.9846L60.4636 35.985C60.4209 36.2204 60.3681 36.5121 60.3 36.8524C61.0212 36.0276 62.4873 35.7611 63.6996 35.7553C62.6402 38.8125 60.7711 38.8516 59.9278 38.4771C59.8057 38.9472 59.6601 39.4578 59.4854 40.0007C60.2863 39.2588 61.7635 39.1374 62.9651 39.2487C61.5996 42.2159 59.7135 42.0434 58.9233 41.579C58.74 42.0472 58.5356 42.5307 58.3072 43.0253C59.247 42.5824 60.6115 42.7703 61.6944 43.1086C59.9085 45.4932 58.2484 45.237 57.4574 44.7041C57.2744 45.0351 57.0803 45.3689 56.8743 45.7045C57.8145 45.2541 59.1861 45.4422 60.2737 45.782C58.3363 48.3688 56.547 47.8479 55.8546 47.2374C55.5373 47.6785 55.198 48.1198 54.8352 48.559C55.8632 48.3803 57.1321 48.9341 58.0859 49.5566C55.7342 51.3513 54.2126 50.6794 53.5878 49.9583C53.3516 50.2041 53.1073 50.4483 52.8545 50.6907C53.8809 50.5166 55.1454 51.069 56.0965 51.6898C53.5631 53.6232 51.993 52.6939 51.4696 51.9245C51.127 52.2083 50.7712 52.4882 50.4017 52.7633C51.4659 52.6989 52.6763 53.4577 53.5472 54.2379C50.7569 55.7609 49.3467 54.6164 48.9418 53.7774C48.5456 54.034 48.1355 54.2852 47.7112 54.5302C48.7048 54.7839 49.6374 55.7554 50.2663 56.6732C47.5229 57.4055 46.3539 56.3326 45.9967 55.446C44.7404 56.0659 43.3739 56.6332 41.8874 57.1334C41.7739 56.9779 41.6746 56.6327 41.6391 56.4795C42.8017 56.1385 44.2311 55.6047 45.7759 54.8353C45.1901 54.1296 44.7233 52.3079 47.4337 50.4893C47.7407 51.6609 47.8592 53.1455 47.2398 54.0515C47.6549 53.8132 48.0747 53.5581 48.4965 53.2856C47.8494 52.5814 47.3723 51.0345 49.3239 48.8996C49.8645 49.8981 50.3098 51.2026 50.0462 52.2074C50.3474 51.982 50.648 51.7472 50.9469 51.5029C50.2046 50.8986 49.5138 49.4447 51.1085 47.0525C51.8152 47.9841 52.4715 49.2514 52.3152 50.3029C52.5882 50.046 52.8586 49.7802 53.1255 49.5055C52.3281 49.006 51.3675 47.515 53.0979 44.9193C53.8137 45.863 54.4778 47.1512 54.2981 48.2105C54.6262 47.8214 54.9466 47.4168 55.2576 46.9963C54.3802 46.6115 53.3295 45.3991 54.2059 42.6751C55.1562 43.3912 56.1513 44.4552 56.2623 45.5272C56.4903 45.1657 56.7113 44.7939 56.9244 44.4115C56.0204 44.1571 54.666 42.9873 55.6266 40.0017C56.5965 40.7326 57.6131 41.8259 57.6887 42.9201C57.9071 42.4548 58.114 41.9755 58.3081 41.4819C57.3699 41.2851 56.0954 40.3166 56.3785 37.4779C57.4064 37.9554 58.5402 38.7328 58.9351 39.6905C59.0619 39.2794 59.18 38.8594 59.2891 38.4302C58.3359 38.3283 56.9668 37.4905 56.9713 34.6316C58.0182 34.9993 59.1941 35.6428 59.6998 36.5277C59.7757 36.1038 59.843 35.6718 59.9011 35.2316C58.9456 35.2491 57.4233 34.5666 57.2063 31.6154C58.3185 31.9151 59.5918 32.501 60.1315 33.401C60.1722 32.9333 60.1965 32.4249 60.2001 31.882C59.2542 32.0322 57.7663 31.5921 56.9172 28.9604C58.0423 28.9898 59.3812 29.2485 60.13 29.9575C60.1008 29.5814 60.0621 29.1949 60.0129 28.7991C59.0859 29.0405 57.486 28.7382 56.5095 26.012C57.6081 26.006 58.9174 26.2118 59.6964 26.8588C59.6126 26.4439 59.5172 26.0222 59.409 25.595C58.5268 25.969 56.9464 25.9013 55.5205 23.469C56.624 23.256 57.9854 23.2204 58.8702 23.7494C58.7445 23.3705 58.6085 22.9889 58.4615 22.6055C57.6313 23.0677 55.919 23.187 54.3854 20.571C55.4773 20.3602 56.8217 20.3231 57.707 20.8348C57.4795 20.3512 57.2335 19.8667 56.9678 19.3831C56.2219 19.9821 54.6349 20.3617 52.6238 18.2646C53.6706 17.7921 55.0227 17.4377 56.0131 17.7853C55.7523 17.3827 55.4767 16.982 55.1856 16.5841C54.5243 17.273 52.9791 17.8629 50.7192 15.9777C51.7081 15.3918 53.0142 14.8898 54.0376 15.1277C53.7169 14.7496 53.3807 14.3753 53.0285 14.0056C52.4746 14.7525 50.8643 15.6188 48.4136 13.5745C49.3976 12.9915 50.6957 12.4915 51.7169 12.721C51.3532 12.3886 50.9751 12.0611 50.5819 11.7393Z" fill="white"/>
<path d="M21.6583 4.00916C21.7147 3.92675 21.8366 3.92675 21.8929 4.00916L22.495 4.89023C22.5136 4.91735 22.541 4.9372 22.5726 4.94638L23.5997 5.24469C23.6957 5.27259 23.7334 5.38813 23.6721 5.46696L23.0172 6.3098C22.997 6.33574 22.9866 6.36786 22.9876 6.40066L23.0202 7.46609C23.0233 7.56574 22.9246 7.63714 22.8305 7.60346L21.8236 7.24329C21.7926 7.23221 21.7587 7.23221 21.7277 7.24329L20.7208 7.60346C20.6266 7.63714 20.528 7.56574 20.531 7.46609L20.5637 6.40066C20.5647 6.36786 20.5542 6.33574 20.534 6.3098L19.8791 5.46696C19.8179 5.38813 19.8555 5.27259 19.9516 5.24469L20.9787 4.94638C21.0103 4.9372 21.0377 4.91735 21.0562 4.89023L21.6583 4.00916Z" fill="white"/>
<path d="M42.3239 4.00916C42.2676 3.92675 42.1457 3.92675 42.0894 4.00916L41.4873 4.89023C41.4687 4.91735 41.4413 4.9372 41.4097 4.94638L40.3826 5.24469C40.2866 5.27259 40.2489 5.38813 40.3102 5.46696L40.9651 6.3098C40.9852 6.33574 40.9957 6.36786 40.9947 6.40066L40.9621 7.46609C40.959 7.56574 41.0577 7.63714 41.1518 7.60346L42.1587 7.24329C42.1897 7.23221 42.2236 7.23221 42.2546 7.24329L43.2615 7.60346C43.3557 7.63714 43.4543 7.56574 43.4512 7.46609L43.4186 6.40066C43.4176 6.36786 43.4281 6.33574 43.4482 6.3098L44.1032 5.46696C44.1644 5.38813 44.1267 5.27259 44.0307 5.24469L43.0036 4.94638C42.972 4.9372 42.9446 4.91735 42.9261 4.89023L42.3239 4.00916Z" fill="white"/>
<path d="M24.6363 59.763C24.6252 60.0235 24.6196 60.2913 24.6196 60.5665V60.9779H24.5185L24.4839 60.9765L23.992 60.9807C23.9606 60.9807 23.9439 60.9811 23.9421 60.9821C23.9421 60.9811 23.9439 60.9733 23.9476 60.9586V60.9503L23.949 60.9448C23.9444 60.8785 23.9421 60.798 23.9421 60.7032L23.9476 59.1611L23.9463 59.0893V59.0203L23.9435 58.8905C23.9435 58.8813 23.9486 58.8717 23.9587 58.8615H24.1485L24.2594 58.8601C24.5199 58.8601 24.706 58.8638 24.8178 58.8712C24.9305 58.8786 25.0113 58.8822 25.0603 58.8822C25.087 59.0405 25.1268 59.2504 25.1794 59.5118L25.2778 60.006H25.3263L25.5036 59.1031C25.5064 59.0893 25.5129 59.0493 25.523 58.983C25.5332 58.9158 25.541 58.8786 25.5466 58.8712H25.5521L26.4541 58.8629L26.5082 58.8643H26.6634C26.6717 58.868 26.6763 58.885 26.6772 58.9154L26.6911 59.4372C26.7022 59.8698 26.71 60.2066 26.7146 60.4478C26.7146 60.6337 26.7118 60.8081 26.7063 60.971C26.7035 60.9821 26.6851 60.9885 26.6509 60.9903L26.5885 60.9931C26.5387 60.9949 26.5017 60.9959 26.4777 60.9959H26.4056C26.316 60.9968 26.1839 60.9972 26.0094 60.9972C25.977 60.9687 25.9609 60.8454 25.9609 60.6273L25.9636 60.1938V60.0819C25.9636 59.9835 25.9632 59.9107 25.9623 59.8638L25.9096 59.8541C25.8791 59.9655 25.8205 60.2135 25.7336 60.5983L25.7212 60.6535C25.7147 60.682 25.7036 60.7331 25.6879 60.8067C25.6731 60.8794 25.6611 60.9347 25.6519 60.9724C25.6408 60.9853 25.5918 60.9917 25.505 60.9917H25.487L25.3318 60.9876L25.2473 60.989H25.1822L25.0727 60.9903H25.0339C24.9914 60.9903 24.9679 60.9807 24.9633 60.9613L24.9646 60.9627L24.8386 60.4146C24.8349 60.4008 24.8266 60.3709 24.8136 60.3249C24.8007 60.278 24.7933 60.2389 24.7915 60.2076L24.6875 59.7603L24.6363 59.763Z" fill="white"/>
<path d="M28.0735 59.763C28.0624 60.0235 28.0568 60.2913 28.0568 60.5665V60.9779H27.9557L27.9211 60.9765L27.4292 60.9807C27.3978 60.9807 27.3812 60.9811 27.3793 60.9821C27.3793 60.9811 27.3812 60.9733 27.3848 60.9586V60.9503L27.3862 60.9448C27.3816 60.8785 27.3793 60.798 27.3793 60.7032L27.3848 59.1611L27.3835 59.0893V59.0203L27.3807 58.8905C27.3807 58.8813 27.3858 58.8717 27.3959 58.8615H27.5858L27.6966 58.8601C27.9571 58.8601 28.1432 58.8638 28.255 58.8712C28.3677 58.8786 28.4485 58.8822 28.4975 58.8822C28.5242 59.0405 28.564 59.2504 28.6166 59.5118L28.715 60.006H28.7635L28.9408 59.1031C28.9436 59.0893 28.9501 59.0493 28.9602 58.983C28.9704 58.9158 28.9783 58.8786 28.9838 58.8712H28.9893L29.8913 58.8629L29.9454 58.8643H30.1006C30.1089 58.868 30.1135 58.885 30.1144 58.9154L30.1283 59.4372C30.1394 59.8698 30.1472 60.2066 30.1518 60.4478C30.1518 60.6337 30.1491 60.8081 30.1435 60.971C30.1407 60.9821 30.1223 60.9885 30.0881 60.9903L30.0257 60.9931C29.9759 60.9949 29.9389 60.9959 29.9149 60.9959H29.8428C29.7532 60.9968 29.6212 60.9972 29.4466 60.9972C29.4142 60.9687 29.3981 60.8454 29.3981 60.6273L29.4009 60.1938V60.0819C29.4009 59.9835 29.4004 59.9107 29.3995 59.8638L29.3468 59.8541C29.3163 59.9655 29.2577 60.2135 29.1708 60.5983L29.1584 60.6535C29.1519 60.682 29.1408 60.7331 29.1251 60.8067C29.1103 60.8794 29.0983 60.9347 29.0891 60.9724C29.078 60.9853 29.0291 60.9917 28.9422 60.9917H28.9242L28.769 60.9876L28.6845 60.989H28.6194L28.5099 60.9903H28.4711C28.4286 60.9903 28.4051 60.9807 28.4005 60.9613L28.4019 60.9627L28.2758 60.4146C28.2721 60.4008 28.2638 60.3709 28.2508 60.3249C28.2379 60.278 28.2305 60.2389 28.2287 60.2076L28.1247 59.7603L28.0735 59.763Z" fill="white"/>
<path d="M32.8976 58.896L32.8963 58.9071L32.5693 59.4289C32.5674 59.4326 32.5415 59.4736 32.4917 59.5518L32.2533 59.9287L32.2838 59.9839L32.3268 60.0433L32.4459 60.2241L32.4792 60.2821C32.4866 60.295 32.4991 60.3143 32.5166 60.3401C32.5342 60.3659 32.5439 60.3801 32.5457 60.3829V60.3815L32.7951 60.7653V60.7639L32.9198 60.9613C32.9226 60.9641 32.924 60.9673 32.924 60.971C32.924 60.9839 32.9009 60.9917 32.8547 60.9945L32.1439 61C32.0885 61 32.0501 60.9936 32.0289 60.9807C32.0224 60.9641 32.0113 60.9406 31.9956 60.9103C31.9799 60.8799 31.9698 60.8596 31.9651 60.8495L31.7421 60.3843C31.6876 60.4874 31.6511 60.5601 31.6326 60.6024C31.5319 60.8205 31.4599 60.9503 31.4165 60.9917C31.2761 60.988 31.1223 60.9862 30.9551 60.9862C30.9551 60.9862 30.925 60.9867 30.865 60.9876H30.6059C30.6013 60.9848 30.599 60.9821 30.599 60.9793C30.599 60.9526 30.6433 60.8739 30.732 60.7432C30.7385 60.7368 30.7431 60.7299 30.7458 60.7225L31.2668 59.9094L31.1394 59.7009C31.0387 59.5224 30.9403 59.3535 30.8442 59.1942L30.6516 58.8767C30.6507 58.8749 30.6502 58.873 30.6502 58.8712H30.8706C31.0507 58.8712 31.1948 58.8749 31.3028 58.8822C31.3878 58.8822 31.4529 58.8818 31.4982 58.8809C31.5333 58.9149 31.6058 59.0645 31.7157 59.3295L31.7365 59.3848L31.7836 59.4773L31.8266 59.3806C31.8543 59.3144 31.8968 59.2196 31.9541 59.0962C32.0113 58.9729 32.0483 58.9016 32.0649 58.8822L32.0718 58.8864L32.2298 58.8809C32.5383 58.8698 32.7568 58.8643 32.8852 58.8643C32.8935 58.8689 32.8976 58.8795 32.8976 58.896ZM32.9226 60.9613H32.9198V60.9572L32.9226 60.9613ZM32.9184 60.9531L32.9198 60.9572C32.9189 60.9563 32.9184 60.9549 32.9184 60.9531Z" fill="white"/>
<path d="M35.5118 58.896L35.5104 58.9071L35.1834 59.4289C35.1816 59.4326 35.1557 59.4736 35.1058 59.5518L34.8675 59.9287L34.898 59.9839L34.941 60.0433L35.0601 60.2241L35.0934 60.2821C35.1008 60.295 35.1132 60.3143 35.1308 60.3401C35.1483 60.3659 35.158 60.3801 35.1599 60.3829V60.3815L35.4093 60.7653V60.7639L35.534 60.9613C35.5368 60.9641 35.5381 60.9673 35.5381 60.971C35.5381 60.9839 35.515 60.9917 35.4689 60.9945L34.7581 61C34.7026 61 34.6643 60.9936 34.6431 60.9807C34.6366 60.9641 34.6255 60.9406 34.6098 60.9103C34.5941 60.8799 34.5839 60.8596 34.5793 60.8495L34.3563 60.3843C34.3018 60.4874 34.2653 60.5601 34.2468 60.6024C34.1461 60.8205 34.0741 60.9503 34.0306 60.9917C33.8902 60.988 33.7364 60.9862 33.5692 60.9862C33.5692 60.9862 33.5392 60.9867 33.4792 60.9876H33.2201C33.2155 60.9848 33.2132 60.9821 33.2132 60.9793C33.2132 60.9526 33.2575 60.8739 33.3462 60.7432C33.3526 60.7368 33.3573 60.7299 33.36 60.7225L33.881 59.9094L33.7535 59.7009C33.6528 59.5224 33.5545 59.3535 33.4584 59.1942L33.2658 58.8767C33.2649 58.8749 33.2644 58.873 33.2644 58.8712H33.4847C33.6649 58.8712 33.8089 58.8749 33.917 58.8822C34.002 58.8822 34.0671 58.8818 34.1124 58.8809C34.1475 58.9149 34.22 59.0645 34.3299 59.3295L34.3507 59.3848L34.3978 59.4773L34.4408 59.3806C34.4685 59.3144 34.511 59.2196 34.5682 59.0962C34.6255 58.9729 34.6625 58.9016 34.6791 58.8822L34.686 58.8864L34.844 58.8809C35.1525 58.8698 35.3709 58.8643 35.4993 58.8643C35.5077 58.8689 35.5118 58.8795 35.5118 58.896ZM35.5368 60.9613H35.534V60.9572L35.5368 60.9613ZM35.5326 60.9531L35.534 60.9572C35.5331 60.9563 35.5326 60.9549 35.5326 60.9531Z" fill="white"/>
<path d="M36.0075 60.8026C36.0075 60.6157 36.0125 60.486 36.0227 60.4133C36.0227 60.0129 36.0282 59.6093 36.0393 59.2025C36.0366 59.1445 36.0352 59.0861 36.0352 59.0272V58.9816C36.0315 58.9531 36.0296 58.9278 36.0296 58.9057C36.0296 58.8836 36.0319 58.8694 36.0366 58.8629C36.2342 58.8749 36.4074 58.8809 36.5561 58.8809C36.7049 58.8809 36.8069 58.8781 36.8624 58.8726C36.8642 58.8753 36.8656 58.8832 36.8665 58.896H36.8568V59.3958L36.8665 60.5196C36.8665 60.5279 36.8679 60.5348 36.8707 60.5403V60.543C36.8734 60.5486 36.8748 60.5545 36.8748 60.561L36.8859 60.9627C36.8813 60.9729 36.873 60.9807 36.861 60.9862H36.8139L36.0379 60.9986C36.0287 60.994 36.0167 60.9871 36.0019 60.9779L36.0033 60.9544L36.0075 60.8026Z" fill="white"/>
<path d="M37.5714 60.8026C37.5714 60.6157 37.5765 60.486 37.5866 60.4133C37.5866 60.0129 37.5922 59.6093 37.6032 59.2025C37.6005 59.1445 37.5991 59.0861 37.5991 59.0272V58.9816C37.5954 58.9531 37.5935 58.9278 37.5935 58.9057C37.5935 58.8836 37.5959 58.8694 37.6005 58.8629C37.7981 58.8749 37.9713 58.8809 38.1201 58.8809C38.2688 58.8809 38.3708 58.8781 38.4263 58.8726C38.4281 58.8753 38.4295 58.8832 38.4304 58.896H38.4207V59.3958L38.4304 60.5196C38.4304 60.5279 38.4318 60.5348 38.4346 60.5403V60.543C38.4374 60.5486 38.4387 60.5545 38.4387 60.561L38.4498 60.9627C38.4452 60.9729 38.4369 60.9807 38.4249 60.9862H38.3778L37.6019 60.9986C37.5926 60.994 37.5806 60.9871 37.5658 60.9779L37.5672 60.9544L37.5714 60.8026Z" fill="white"/>
<path d="M39.1353 60.8026C39.1353 60.6157 39.1404 60.486 39.1505 60.4133C39.1505 60.0129 39.1561 59.6093 39.1672 59.2025C39.1644 59.1445 39.163 59.0861 39.163 59.0272V58.9816C39.1593 58.9531 39.1575 58.9278 39.1575 58.9057C39.1575 58.8836 39.1598 58.8694 39.1644 58.8629C39.3621 58.8749 39.5353 58.8809 39.684 58.8809C39.8327 58.8809 39.9348 58.8781 39.9902 58.8726C39.992 58.8753 39.9934 58.8832 39.9943 58.896H39.9846V59.3958L39.9943 60.5196C39.9943 60.5279 39.9957 60.5348 39.9985 60.5403V60.543C40.0013 60.5486 40.0027 60.5545 40.0027 60.561L40.0137 60.9627C40.0091 60.9729 40.0008 60.9807 39.9888 60.9862H39.9417L39.1658 60.9986C39.1565 60.994 39.1445 60.9871 39.1298 60.9779L39.1311 60.9544L39.1353 60.8026Z" fill="white"/>
</svg>
